<svg version="1.0" xmlns="http://www.w3.org/2000/svg"
 width="3885.000000pt" height="563.000000pt" viewBox="0 0 3885.000000 563.000000"
 preserveAspectRatio="xMidYMid meet">

<g transform="translate(0.000000,563.000000) scale(0.100000,-0.100000)"
fill="#000000" stroke="none">
<path d="M744 3706 c-423 -81 -661 -344 -705 -781 -31 -304 54 -610 221 -787
113 -122 231 -187 402 -224 96 -20 300 -20 398 0 168 35 322 145 388 279 l32
62 0 -157 0 -158 170 0 170 0 0 465 0 465 -497 -2 -498 -3 0 -130 0 -130 308
-3 307 -2 -6 -28 c-34 -155 -107 -257 -220 -309 -120 -55 -320 -68 -450 -28
-125 37 -222 135 -269 271 -53 153 -55 424 -4 588 43 142 145 245 284 289 98
30 299 30 394 -1 125 -41 214 -130 241 -242 l12 -50 202 0 203 0 -9 58 c-14
92 -57 204 -107 278 -86 126 -220 211 -408 261 -86 22 -123 26 -293 29 -135 2
-217 -1 -266 -10z"/>
<path d="M24665 3713 c-404 -55 -671 -326 -726 -739 -16 -124 -6 -345 21 -454
32 -129 108 -275 187 -360 188 -203 437 -281 821 -259 350 21 561 135 672 364
41 83 74 205 86 313 l7 62 -209 -2 -208 -3 -12 -71 c-15 -92 -42 -152 -94
-208 -73 -79 -140 -108 -289 -126 -103 -13 -221 -1 -307 31 -71 27 -157 106
-194 179 -54 107 -65 167 -65 365 0 198 11 258 65 365 53 105 157 183 278 209
123 26 330 8 416 -36 93 -48 167 -161 189 -289 l11 -64 204 0 205 0 -7 69 c-3
37 -17 108 -32 157 -82 283 -266 437 -586 489 -86 14 -353 19 -433 8z"/>
<path d="M35857 3704 c-177 -32 -329 -120 -405 -234 -59 -88 -82 -169 -82
-290 0 -156 41 -262 138 -352 101 -94 179 -119 508 -163 268 -36 323 -48 376
-86 95 -68 88 -260 -11 -327 -91 -60 -301 -77 -437 -34 -121 37 -200 128 -220
251 l-7 41 -193 0 -194 0 0 -37 c1 -114 65 -265 153 -360 143 -152 327 -214
637 -214 289 0 465 51 595 173 107 100 149 206 149 383 0 165 -30 250 -123
348 -58 61 -144 110 -240 136 -40 11 -186 34 -325 51 -215 27 -259 35 -306 58
-44 21 -60 36 -77 72 -54 105 -3 226 115 276 62 26 174 36 258 24 91 -12 157
-39 203 -83 37 -35 81 -119 81 -154 l0 -23 201 0 201 0 -7 43 c-43 279 -222
448 -532 502 -107 19 -350 18 -456 -1z"/>
<path d="M2430 2810 l0 -870 690 0 691 0 -3 158 -3 157 -488 3 -487 2 2 208 3
207 443 3 442 2 0 150 0 150 -445 0 -445 0 0 190 0 190 485 0 485 0 0 160 0
160 -685 0 -685 0 0 -870z"/>
<path d="M4400 2810 l0 -870 190 0 190 0 2 703 3 702 19 -50 c11 -27 126 -284
257 -570 130 -286 263 -578 296 -650 l59 -130 332 -3 332 -2 0 870 0 870 -190
0 -190 0 -2 -707 -3 -708 -19 50 c-18 47 -123 280 -476 1053 l-142 312 -329 0
-329 0 0 -870z"/>
<path d="M6710 2810 l0 -870 685 0 685 0 0 160 0 160 -485 0 -485 0 0 210 0
210 445 0 446 0 -3 148 -3 147 -442 3 -443 2 0 190 0 190 480 0 480 0 0 160 0
160 -680 0 -680 0 0 -870z"/>
<path d="M8670 2811 l0 -871 205 0 205 0 0 335 0 335 189 0 c103 0 213 -5 242
-10 83 -16 138 -55 174 -124 29 -58 30 -63 36 -255 4 -108 9 -203 12 -211 3
-8 8 -27 11 -42 l6 -28 200 0 c224 0 210 -6 189 75 -5 22 -13 137 -18 255 -7
190 -10 221 -30 264 -43 99 -101 150 -213 192 -35 12 -56 23 -48 23 32 2 141
62 186 103 93 85 138 180 150 311 16 193 -76 367 -239 446 -133 65 -129 65
-719 69 l-538 3 0 -870z m960 533 c25 -12 58 -35 72 -52 47 -56 58 -170 27
-269 -13 -41 -77 -99 -126 -112 -22 -6 -140 -11 -280 -11 l-243 0 0 236 0 236
253 -4 c229 -3 256 -5 297 -24z"/>
<path d="M11205 3668 c-33 -92 -605 -1722 -605 -1725 0 -2 91 -3 203 -3 l202
0 60 173 61 172 389 0 388 0 61 -172 61 -173 203 0 c111 0 202 1 202 3 0 1
-137 391 -304 867 l-304 865 -306 3 c-240 2 -308 0 -311 -10z m450 -677 c74
-210 135 -384 135 -387 0 -2 -124 -4 -275 -4 -151 0 -275 2 -275 5 0 3 55 160
121 348 67 188 128 361 136 385 9 24 17 41 19 39 2 -2 65 -176 139 -386z"/>
<path d="M12920 2810 l0 -870 605 0 605 0 0 160 0 160 -405 0 -405 0 0 710 0
710 -200 0 -200 0 0 -870z"/>
<path d="M26675 3668 c-21 -56 -605 -1721 -605 -1724 0 -2 91 -4 203 -4 l202
0 60 173 60 172 389 0 389 0 61 -172 61 -173 203 0 c185 0 204 2 198 16 -4 9
-139 393 -300 853 -162 460 -297 844 -301 854 -7 16 -31 17 -311 17 -235 0
-306 -3 -309 -12z m449 -677 c75 -211 136 -386 136 -387 0 -2 -124 -4 -275 -4
-151 0 -275 3 -275 7 0 5 246 705 268 761 2 7 6 11 8 10 2 -2 64 -176 138
-387z"/>
<path d="M28010 3520 l0 -160 290 0 290 0 0 -710 0 -710 200 0 200 0 0 710 0
710 285 0 285 0 0 160 0 160 -775 0 -775 0 0 -160z"/>
<path d="M30292 3623 c-11 -32 -122 -348 -247 -703 -125 -355 -253 -720 -286
-812 l-58 -168 203 0 203 0 60 173 60 172 389 3 389 2 60 -172 61 -173 202 -3
c111 -1 202 1 202 5 -1 5 -137 395 -304 868 l-302 860 -306 3 -306 2 -20 -57z
m466 -633 c73 -206 132 -378 132 -382 0 -5 -124 -8 -276 -8 -229 0 -275 2
-271 14 3 7 65 183 138 389 73 207 136 373 139 369 4 -4 66 -176 138 -382z"/>
<path d="M32020 2810 l0 -870 610 0 610 0 0 160 0 160 -410 0 -410 0 0 710 0
710 -200 0 -200 0 0 -870z"/>
<path d="M33331 3658 c7 -13 156 -288 331 -612 l318 -588 0 -259 0 -259 200 0
200 0 0 262 0 262 325 603 c179 332 325 606 325 608 0 3 -100 4 -222 3 l-222
-3 -144 -300 c-80 -165 -170 -360 -202 -433 -32 -73 -60 -135 -62 -137 -2 -2
-27 51 -56 118 -29 67 -119 264 -200 437 l-147 315 -228 3 -228 2 12 -22z"/>
<path d="M37260 3520 l0 -160 285 0 285 0 0 -710 0 -710 200 0 200 0 0 710 0
710 285 0 285 0 0 160 0 160 -770 0 -770 0 0 -160z"/>
</g>
<g transform="translate(0.000000,563.000000) scale(0.100000,-0.100000)"
fill="#623ba4" stroke="none">
<path d="M18775 5614 c-645 -77 -1197 -338 -1654 -780 -444 -428 -727 -982
-826 -1614 -23 -142 -31 -522 -15 -676 35 -355 123 -659 281 -981 342 -694
953 -1212 1705 -1443 240 -74 469 -110 754 -117 479 -12 931 94 1369 323 517
269 946 710 1206 1238 146 297 217 524 266 851 23 152 35 438 24 578 l-7 97
-1260 0 -1260 0 -366 -267 -366 -268 1353 -3 1354 -2 -7 -53 c-31 -235 -122
-520 -237 -737 -509 -959 -1611 -1426 -2651 -1124 -600 174 -1108 603 -1392
1175 -441 887 -252 1959 467 2646 358 341 794 548 1297 613 119 16 415 16 535
1 498 -64 933 -270 1303 -615 47 -44 210 -225 228 -254 4 -7 434 311 434 321
0 17 -141 179 -254 292 -530 526 -1245 818 -1991 814 -99 -1 -229 -7 -290 -15z"/>
<path d="M18908 4600 c-353 -37 -693 -176 -953 -390 -98 -81 -252 -241 -317
-330 -171 -235 -275 -484 -330 -790 -17 -100 -17 -450 0 -550 67 -375 223
-691 471 -952 209 -220 452 -376 730 -468 217 -72 295 -84 561 -85 206 0 249
3 348 23 312 63 604 207 840 412 94 82 234 238 229 254 -3 10 -85 71 -329 247
l-97 70 -93 -94 c-261 -263 -574 -387 -938 -374 -335 13 -617 140 -849 383
-233 243 -345 523 -345 859 0 161 14 256 60 395 142 430 530 763 974 835 402
65 796 -62 1088 -350 l95 -94 213 155 c118 86 214 162 214 170 0 24 -257 274
-346 337 -309 218 -634 329 -1002 341 -75 3 -176 1 -224 -4z"/>
</g>
</svg>
