<svg version="1.1" id="Layer_1" xmlns="http://www.w3.org/2000/svg" xmlns:xlink="http://www.w3.org/1999/xlink" x="0px" y="0px"
	 width="100%" viewBox="0 0 2000 636" enable-background="new 0 0 2000 636" xml:space="preserve">
<path fill="#47704C" opacity="1.000000" stroke="none" 
	d="
M2001.000000,342.000000 
	C2001.000000,440.309906 2001.000000,538.619812 2001.000000,637.000000 
	C1512.973145,637.000000 1024.946289,637.000000 536.438354,636.634155 
	C523.221069,611.658997 510.535553,587.023071 497.613556,562.511719 
	C496.894318,561.147400 494.233246,560.147217 492.451660,560.108887 
	C480.304840,559.847473 468.151489,559.889404 455.660278,559.593994 
	C437.880188,559.291809 420.440094,559.229126 402.534698,559.106567 
	C380.175018,559.046692 358.280640,559.046692 335.536591,559.046692 
	C336.431061,561.262573 336.914429,562.775330 337.625122,564.172485 
	C345.606354,579.862183 353.693298,595.498596 361.601074,611.225098 
	C365.883484,619.741577 369.876434,628.403625 374.000000,637.000000 
	C249.777496,637.000000 125.554993,637.000000 1.000000,637.000000 
	C1.000000,604.640564 1.000000,572.280029 1.326747,539.669189 
	C2.111778,541.502625 2.579738,543.584167 3.026801,545.670166 
	C6.223679,560.587036 12.122829,574.218872 22.319117,585.748779 
	C37.657265,603.092957 58.079002,608.848022 80.061157,609.802856 
	C100.878105,610.707214 119.218102,602.510376 136.622406,591.905212 
	C161.499619,576.746643 183.957230,558.661621 202.927689,536.493530 
	C215.574844,521.714661 227.788437,506.564697 240.813080,490.835693 
	C258.342926,490.835693 277.278900,490.835693 296.057678,490.835693 
	C303.716583,505.675079 311.290527,520.349915 319.118896,535.323914 
	C324.023651,535.749634 328.673920,535.977600 333.324402,535.982239 
	C343.550812,535.992554 353.777344,535.889954 364.469299,535.889771 
	C396.603821,535.909668 428.272888,535.873291 460.408936,535.893555 
	C462.375397,535.966797 463.874817,535.997864 465.374237,535.997925 
	C880.438354,536.000000 1295.502441,536.000122 1710.566528,535.993225 
	C1712.396851,535.993225 1714.227295,535.891296 1716.517334,535.892883 
	C1768.800537,535.965820 1820.623901,535.993469 1872.447388,535.992004 
	C1884.276001,535.991699 1896.104614,535.891174 1908.403076,535.893738 
	C1919.322998,536.296448 1929.771362,536.700989 1940.223389,536.963684 
	C1945.631592,537.099548 1951.055542,537.171082 1956.452881,536.891357 
	C1958.664551,536.776733 1961.718384,537.030029 1961.948120,533.379761 
	C1962.291260,527.929688 1962.930908,522.479675 1962.917969,517.030823 
	C1962.902954,510.746857 1961.993042,504.459259 1962.089355,498.182709 
	C1962.154907,493.910553 1960.628540,492.489288 1956.594727,492.953522 
	C1954.785767,493.161682 1952.932617,492.989105 1951.099609,492.986908 
	C1676.858887,492.659241 1402.618408,492.230652 1128.377563,492.035370 
	C907.747498,491.878265 687.117310,492.000549 466.487152,492.046539 
	C464.403931,492.046967 462.320831,492.698486 460.131409,492.695679 
	C456.651947,486.115936 453.253693,479.900055 449.909882,473.655029 
	C434.014740,443.968811 418.116394,414.284302 402.255219,384.579895 
	C391.766907,364.937622 381.352142,345.256012 370.882294,325.603821 
	C349.209106,284.922638 327.531342,244.243881 305.815704,203.585358 
	C304.404205,200.942566 302.655151,198.480042 300.957367,195.764481 
	C291.423096,207.483749 99.602158,531.496094 99.624268,536.253723 
	C103.928932,536.253723 108.363312,535.628052 112.513367,536.445618 
	C116.028244,537.138062 117.671318,536.263855 119.320999,533.429626 
	C126.797218,520.585083 134.577164,507.914246 141.864410,494.965118 
	C143.625839,491.835175 145.487991,490.923767 148.835281,490.939423 
	C173.161530,491.053436 197.488556,490.995667 221.815323,491.013306 
	C223.219330,491.014343 224.623215,491.199707 226.336792,491.321228 
	C225.860641,492.204163 225.715927,492.687195 225.406647,493.014984 
	C213.531418,505.601074 201.876572,518.407043 189.679199,530.673462 
	C179.736313,540.672607 169.161530,550.045044 158.832047,559.657837 
	C144.923981,572.600952 129.704788,583.626099 111.484619,589.603882 
	C104.057472,592.040527 96.000046,594.966431 88.510384,594.335266 
	C68.665680,592.663025 56.765453,580.412292 56.183384,559.258972 
	C55.659420,540.217346 61.357426,522.458008 71.409836,506.248657 
	C97.679466,463.889038 124.070145,421.604492 150.356125,379.255005 
	C172.005722,344.375153 193.585876,309.452118 215.175003,274.534790 
	C229.391754,251.541229 243.593994,228.538651 257.749329,205.507278 
	C261.563416,199.301620 265.182495,192.976120 268.953033,186.600891 
	C268.134583,186.314072 267.977692,186.211166 267.820618,186.210815 
	C235.827606,186.139725 203.834534,186.048599 171.841751,186.108673 
	C170.524490,186.111145 168.665176,187.207214 167.980423,188.347473 
	C162.628784,197.259354 157.564041,206.342773 152.294846,215.305099 
	C140.834091,234.798615 129.306503,254.252823 117.802620,273.720978 
	C107.629295,290.937439 97.405586,308.124268 87.286812,325.372711 
	C75.170753,346.025726 63.055489,366.680054 51.102173,387.427338 
	C40.494301,405.839294 29.517750,424.077362 19.859652,442.982635 
	C14.583559,453.310333 11.315550,464.742493 7.866553,475.900543 
	C5.024223,485.095947 3.248438,494.621033 0.999998,504.000000 
	C1.000000,336.422516 1.000000,168.845032 1.000000,1.000000 
	C96.026695,1.000000 191.053650,1.000000 286.351257,1.317663 
	C266.745148,7.434014 251.322693,19.419876 239.725677,36.274097 
	C229.281693,51.452606 222.403076,67.853745 226.048096,86.896179 
	C228.273132,98.520325 235.098373,106.532867 246.218262,110.577797 
	C258.121338,114.907623 269.784637,112.431549 280.709930,107.517944 
	C303.452301,97.289635 319.433655,80.096123 328.305176,56.883453 
	C331.127625,49.498367 332.975220,41.112957 332.657990,33.291176 
	C332.064667,18.660957 326.001831,6.532962 311.000000,1.000000 
	C874.216187,1.000000 1437.432373,1.000000 2001.000000,1.000000 
	C2001.000000,110.026611 2001.000000,219.053604 2000.696533,328.341919 
	C1995.548584,310.506012 1975.499268,305.031006 1961.592529,313.475891 
	C1953.533569,318.369690 1948.344727,330.619507 1950.242432,339.355286 
	C1952.744263,350.871796 1960.877563,359.147125 1971.436768,360.919922 
	C1981.291626,362.574432 1992.671021,357.241730 1997.720947,348.517517 
	C1998.937256,346.416382 1999.913330,344.176208 2001.000000,342.000000 
M564.242615,195.411682 
	C560.513733,202.210175 556.730713,208.979614 553.067261,215.813156 
	C545.272278,230.353134 537.664917,244.995026 529.753784,259.471130 
	C515.274536,285.965637 500.630737,312.370117 486.056000,338.812408 
	C476.096802,356.880951 466.357330,375.076477 456.035187,392.935242 
	C453.236664,397.777130 453.269379,401.447510 455.986938,406.042633 
	C465.799438,422.634583 475.328796,439.393646 485.047577,456.041504 
	C488.240204,461.510376 491.683472,466.832886 495.829681,473.546082 
	C547.405212,380.212189 598.346008,288.027008 649.480408,195.491455 
	C641.743896,194.940216 635.149658,194.126221 628.548523,194.064819 
	C609.060425,193.883575 589.569519,193.979126 570.079895,194.035873 
	C568.324219,194.040970 566.570068,194.547989 564.242615,195.411682 
M1487.976807,410.946167 
	C1485.277466,413.082001 1484.898193,410.129883 1484.038330,408.955994 
	C1469.200562,388.697601 1454.321533,368.466949 1439.782959,347.994751 
	C1437.512573,344.797729 1434.869263,344.362823 1432.230591,345.374390 
	C1430.953857,345.863892 1430.100708,349.048340 1430.091919,351.017212 
	C1429.959595,380.678864 1429.975830,410.341339 1430.012329,440.003510 
	C1430.025879,451.015686 1428.778442,449.656921 1439.812744,450.120361 
	C1445.138062,450.344025 1446.162354,448.348053 1446.100586,443.514069 
	C1445.856079,424.353363 1446.000244,405.187744 1446.000366,386.023926 
	C1446.000366,384.263336 1446.000488,382.502747 1446.000488,379.650513 
	C1447.512817,381.317444 1448.336670,382.058258 1448.962402,382.939697 
	C1464.273193,404.507721 1479.643677,426.034393 1494.769165,447.731720 
	C1497.043457,450.994263 1499.308472,451.473969 1502.574951,450.465942 
	C1502.574951,415.254395 1502.574951,380.363892 1502.574951,345.423462 
	C1497.586792,345.423462 1493.031250,345.423462 1487.993042,345.423462 
	C1487.993042,367.311127 1487.993042,388.778381 1487.976807,410.946167 
M1232.800049,373.374298 
	C1226.314941,372.898315 1219.677734,371.294800 1213.371826,372.146332 
	C1189.211304,375.408783 1184.420288,402.894135 1195.255005,417.650818 
	C1197.326050,420.471436 1200.043335,422.817688 1202.596680,425.525177 
	C1201.363525,426.183075 1200.514771,426.700043 1199.615601,427.105072 
	C1194.366455,429.469513 1192.426636,433.558136 1192.977539,439.178162 
	C1193.466919,444.170044 1196.577271,446.615692 1200.828247,448.430389 
	C1207.190674,451.146423 1213.436401,449.602203 1219.830933,448.681793 
	C1224.271606,448.042572 1228.960205,447.731018 1233.317871,448.507843 
	C1235.457642,448.889313 1238.375488,451.927307 1238.622070,454.034454 
	C1238.897461,456.387268 1237.188965,460.067047 1235.182983,461.340668 
	C1232.005249,463.358215 1227.932373,464.318115 1224.112671,464.898285 
	C1216.379883,466.072784 1209.539917,463.111603 1202.837769,459.558167 
	C1201.372192,458.781158 1198.239990,458.706970 1197.394409,459.658752 
	C1194.848022,462.524597 1193.050537,466.055908 1191.011108,469.249451 
	C1204.264404,480.962585 1231.177612,482.458984 1244.942749,472.429962 
	C1252.527832,466.903625 1255.390991,459.124084 1253.776978,450.093811 
	C1252.326782,441.979797 1246.858154,436.499176 1238.905762,435.352081 
	C1232.039795,434.361725 1224.874634,435.316406 1217.849731,435.606293 
	C1213.588379,435.782104 1209.262939,436.997803 1204.622803,434.366425 
	C1209.473755,430.441772 1214.456665,430.141357 1219.597778,429.950562 
	C1229.179810,429.595001 1237.780518,426.727661 1243.907349,418.818329 
	C1252.530029,407.687134 1251.392456,395.821503 1246.121826,383.423676 
	C1248.422119,381.357178 1250.796021,379.224548 1253.961426,376.380859 
	C1251.388428,374.225739 1249.134888,372.705750 1247.347900,370.757721 
	C1244.404541,367.549286 1242.161743,367.002136 1239.763916,371.348877 
	C1238.509033,373.623535 1236.699463,375.981628 1232.800049,373.374298 
M1657.469604,402.927002 
	C1662.610840,417.547028 1667.682373,432.192444 1672.989380,446.752045 
	C1673.592285,448.405884 1675.471313,450.623352 1676.843750,450.684937 
	C1678.281006,450.749451 1680.473145,448.831726 1681.204590,447.255615 
	C1684.683228,439.759186 1687.776123,432.083801 1691.006592,424.472198 
	C1694.043457,417.316772 1697.080933,410.161530 1700.634155,401.790436 
	C1707.495972,417.758606 1713.759277,432.469666 1720.194092,447.105316 
	C1720.861450,448.623047 1722.719971,450.851562 1723.722656,450.703064 
	C1725.299683,450.469513 1727.370972,448.768188 1727.934082,447.216827 
	C1735.758911,425.660522 1743.440796,404.051117 1750.986328,382.395081 
	C1754.745972,371.605103 1754.590820,371.666565 1742.868042,371.916656 
	C1740.192261,371.973724 1739.080688,372.984772 1738.293335,375.265594 
	C1735.224121,384.156952 1732.074219,393.020721 1728.919800,401.882416 
	C1726.921997,407.495392 1724.862671,413.086395 1722.636719,419.222382 
	C1721.259888,416.464935 1720.095825,414.452179 1719.217529,412.321686 
	C1714.056519,399.804749 1709.020142,387.235840 1703.751099,374.764984 
	C1703.248047,373.574249 1701.498047,372.383667 1700.202759,372.228485 
	C1699.244263,372.113586 1697.551758,373.457825 1697.098877,374.535492 
	C1693.835083,382.301849 1690.859863,390.188660 1687.682617,397.992310 
	C1684.984741,404.618927 1682.139038,411.185394 1678.833740,419.023102 
	C1677.244751,414.316040 1676.097046,410.937836 1674.963867,407.554749 
	C1671.346924,396.755707 1667.797974,385.932922 1664.037231,375.184235 
	C1663.597778,373.928467 1662.071289,372.283966 1660.927490,372.182098 
	C1656.833130,371.817535 1652.686646,372.039307 1647.157715,372.039307 
	C1650.685059,382.702332 1653.910767,392.453064 1657.469604,402.927002 
M761.627258,449.438568 
	C763.835205,448.407471 766.043091,447.376373 768.251038,446.345276 
	C768.185303,446.816925 768.119507,447.288574 768.053711,447.760223 
	C769.854187,448.505981 771.599121,449.494232 773.472107,449.923004 
	C775.053955,450.285156 776.807678,449.819244 778.444336,450.033386 
	C782.881042,450.613922 784.107666,448.746796 784.085999,444.395020 
	C783.925415,412.102875 784.004517,379.809570 783.984314,347.516632 
	C783.983276,345.774017 783.766479,344.031494 783.663696,342.492798 
	C778.428406,342.492798 773.874878,342.492798 768.999512,342.492798 
	C768.999512,348.299286 768.999512,353.614929 768.999512,358.930573 
	C768.999512,364.213135 768.999512,369.495697 768.999512,373.875244 
	C762.383789,372.894287 756.047424,370.799896 749.908752,371.272797 
	C734.772827,372.438690 725.582581,382.135376 720.095764,395.492035 
	C716.438599,404.394745 716.645386,413.728821 717.848267,423.270508 
	C719.255920,434.435822 729.189331,447.730835 740.242126,449.682404 
	C746.917419,450.861023 753.986816,449.808105 761.627258,449.438568 
M1026.136230,436.645599 
	C1024.637207,440.826752 1023.138184,445.007935 1021.354492,449.982849 
	C1027.251465,449.982849 1031.753174,450.249084 1036.188843,449.824707 
	C1037.565063,449.693054 1039.358643,447.927795 1039.936768,446.496704 
	C1042.338501,440.550995 1044.348999,434.447266 1046.635620,428.029449 
	C1057.953247,428.029449 1069.266113,427.861633 1080.561646,428.229767 
	C1082.070557,428.278931 1084.108154,430.793762 1084.830566,432.595886 
	C1086.604248,437.020813 1087.659668,441.728271 1089.212402,446.250580 
	C1089.660034,447.554504 1090.756836,449.575897 1091.655151,449.630280 
	C1096.953857,449.950989 1102.281860,449.788147 1107.971802,449.788147 
	C1107.373047,447.557159 1107.194336,446.569397 1106.847290,445.644836 
	C1100.294067,428.191132 1093.673584,410.762482 1087.166138,393.291748 
	C1081.580811,378.296692 1076.209106,363.221069 1070.483276,348.280609 
	C1069.815308,346.537720 1067.641602,344.638367 1065.886108,344.310699 
	C1064.765625,344.101562 1062.477539,346.388916 1061.821899,348.006470 
	C1049.953003,377.286865 1038.252808,406.635681 1026.136230,436.645599 
M1933.127686,432.351227 
	C1936.316895,437.364929 1939.460938,442.408386 1942.732666,447.367676 
	C1943.400146,448.379486 1944.510864,449.749878 1945.479248,449.801819 
	C1950.194580,450.054840 1954.930908,449.916229 1961.289551,449.916229 
	C1950.797852,433.251038 1941.102783,417.851227 1931.354370,402.366638 
	C1939.336060,392.822479 1947.241577,383.369354 1955.786499,373.151672 
	C1949.269653,371.532806 1943.847412,371.424988 1938.396240,372.902527 
	C1937.655029,373.103455 1936.908691,373.695648 1936.407837,374.306244 
	C1932.952637,378.518555 1929.622192,382.834106 1926.135864,387.019958 
	C1921.456421,392.638428 1916.672485,398.169739 1911.000488,404.834778 
	C1911.000488,401.323486 1911.000488,399.503296 1911.000366,397.683105 
	C1910.999634,380.861877 1911.069092,364.039886 1910.890747,347.220490 
	C1910.872559,345.503113 1909.559937,342.478638 1908.518433,342.327179 
	C1904.529907,341.747131 1900.406616,342.092590 1896.454834,342.092590 
	C1896.454834,378.513519 1896.454834,414.053009 1896.454834,449.986145 
	C1900.218262,449.986145 1903.532227,449.904877 1906.840332,450.010315 
	C1909.812378,450.105011 1911.071777,448.823578 1911.013916,445.846558 
	C1910.916626,440.852173 1911.584351,435.768646 1910.872192,430.876648 
	C1909.574097,421.957214 1916.192749,418.647064 1921.366455,413.470093 
	C1925.467896,419.947510 1929.176758,425.805084 1933.127686,432.351227 
M1300.319702,450.999878 
	C1306.242065,449.656036 1312.437134,449.004852 1318.023315,446.806671 
	C1326.484985,443.476898 1326.420044,442.353790 1321.158325,434.636566 
	C1319.374146,432.019928 1318.057617,431.274933 1314.908691,433.309692 
	C1308.197998,437.645996 1300.771973,439.199493 1292.743408,437.011932 
	C1283.267822,434.430084 1275.842285,423.483734 1277.861572,414.001648 
	C1279.712769,414.001648 1281.685425,414.001801 1283.658081,414.001648 
	C1297.820312,414.000488 1311.983643,413.896759 1326.143799,414.070404 
	C1329.669312,414.113617 1331.725586,412.763184 1331.833374,409.470703 
	C1331.979248,405.016602 1332.078735,400.437866 1331.244873,396.095703 
	C1327.263062,375.362030 1305.396118,367.015472 1286.560181,372.936737 
	C1265.602417,379.525085 1257.649780,400.627808 1261.704102,422.124451 
	C1265.107788,440.171814 1280.282471,452.538025 1300.319702,450.999878 
M1538.109497,448.574097 
	C1549.694336,452.720673 1561.182861,452.106873 1572.319824,447.222656 
	C1581.320679,443.275269 1581.043335,443.112427 1576.288452,434.539398 
	C1574.541016,431.388550 1572.906006,431.490875 1570.390991,433.165436 
	C1562.056152,438.715149 1553.232910,439.557709 1544.085938,435.492645 
	C1538.352417,432.944489 1530.596069,422.885315 1532.993408,414.001038 
	C1534.853149,414.001038 1536.828247,414.001221 1538.803223,414.001038 
	C1552.949097,413.999756 1567.095215,413.971771 1581.240845,414.020355 
	C1583.938110,414.029633 1586.550781,413.773712 1586.850952,410.533295 
	C1587.857056,399.669312 1586.765137,389.303833 1578.521118,381.034149 
	C1572.537720,375.032196 1565.322388,372.481995 1556.814819,371.575195 
	C1548.658936,370.705902 1541.323608,371.764801 1534.604248,376.018463 
	C1524.270142,382.560303 1518.188354,392.181488 1516.418457,404.260162 
	C1513.931030,421.236206 1519.247925,440.099396 1538.109497,448.574097 
M855.431824,372.809479 
	C852.035217,374.099060 848.410278,375.007629 845.342896,376.846405 
	C843.908630,377.706268 842.487976,380.679443 842.921814,382.143524 
	C843.922363,385.520233 846.060120,388.559906 847.315247,390.937988 
	C853.506531,389.024963 859.273071,386.586853 865.281982,385.540039 
	C874.348633,383.960480 884.551941,389.859894 881.231873,399.998566 
	C877.667175,399.998566 873.876587,400.065277 870.089050,399.985687 
	C859.830811,399.770264 851.300842,403.785278 844.487976,411.134094 
	C838.336975,417.768982 836.146667,425.863434 838.897949,434.621552 
	C841.618042,443.280121 847.476257,449.285461 856.676636,450.660614 
	C867.008606,452.204926 876.714355,450.324890 884.733704,442.612915 
	C889.367004,449.680756 895.696289,451.948883 904.515503,450.454193 
	C903.865662,447.226532 903.568298,444.364899 902.687378,441.695862 
	C901.337158,437.605072 898.476624,433.716217 898.220703,429.618988 
	C897.567505,419.162689 898.387878,408.620697 897.904480,398.145935 
	C897.234009,383.616547 891.522461,375.559357 878.224670,372.515991 
	C871.229431,370.915039 863.540771,372.343933 855.431824,372.809479 
M1767.476074,440.980408 
	C1772.516113,446.335693 1778.585327,449.798248 1785.942017,450.666626 
	C1801.968018,452.558441 1815.445557,448.538544 1823.757080,431.778107 
	C1828.168579,422.882172 1827.232056,413.590149 1826.878052,404.427490 
	C1826.009521,381.954926 1810.490234,369.997925 1790.161377,371.151276 
	C1773.588501,372.091522 1762.499146,383.222839 1759.362793,398.054108 
	C1756.185669,413.078491 1757.076172,427.653046 1767.476074,440.980408 
M1177.000244,423.500000 
	C1176.667847,413.386108 1176.942505,403.199982 1175.750610,393.188446 
	C1175.142700,388.082367 1172.701294,382.723511 1169.688965,378.470306 
	C1162.878052,368.853394 1142.040161,368.549835 1132.855713,377.617249 
	C1131.965820,378.495880 1130.880249,379.176208 1129.688721,380.101379 
	C1129.005005,378.668518 1128.321289,377.686981 1128.055420,376.602936 
	C1126.703247,371.086975 1122.364014,371.889191 1118.451538,372.098694 
	C1114.057129,372.334015 1115.029907,375.825592 1115.024170,378.489197 
	C1114.980469,398.979187 1114.965210,419.469421 1115.013672,439.959381 
	C1115.040039,451.132904 1113.693726,449.705444 1125.263916,450.100708 
	C1130.042480,450.263947 1131.151978,448.506927 1131.085938,444.068115 
	C1130.860596,428.912140 1131.293091,413.742065 1130.846313,398.595917 
	C1130.683716,393.084167 1132.737427,389.816193 1137.186646,387.436218 
	C1143.089478,384.278625 1149.571045,383.464722 1155.330688,386.497192 
	C1160.365234,389.148071 1161.127686,394.818573 1161.053345,400.417572 
	C1160.882690,413.242462 1160.984619,426.071167 1161.004150,438.898285 
	C1161.023560,451.579468 1159.979248,449.759369 1172.344116,450.061005 
	C1176.255859,450.156433 1177.146240,448.483673 1177.051392,444.988617 
	C1176.866333,438.163635 1176.999146,431.330017 1177.000244,423.500000 
M962.999512,423.500000 
	C962.999573,428.832458 962.930420,434.166016 963.013489,439.497192 
	C963.200928,451.524475 961.120361,449.701355 973.660950,450.069977 
	C977.804932,450.191772 979.134705,448.813446 979.077637,444.668427 
	C978.873596,429.840271 979.246521,415.001099 978.859192,400.180237 
	C978.727661,395.147980 977.658813,389.899048 975.840332,385.205444 
	C972.677979,377.042847 966.574890,372.705688 957.376099,371.700012 
	C948.206116,370.697540 940.393311,372.073517 933.765198,378.670715 
	C933.229126,379.204315 932.451111,379.494843 931.683899,379.959900 
	C930.812866,378.389648 929.931091,377.153809 929.401733,375.781921 
	C927.497681,370.847443 923.354614,371.687927 919.684265,372.255402 
	C915.782959,372.858582 917.054199,376.352600 917.045471,378.779388 
	C916.967468,400.442322 916.992798,422.105652 917.012329,443.768860 
	C917.014038,445.699066 917.189636,447.629181 917.306030,449.999359 
	C920.815369,449.999359 923.815674,449.744934 926.755981,450.056610 
	C931.649719,450.575409 933.143372,448.507477 933.075562,443.781006 
	C932.865234,429.119720 932.999451,414.453461 933.000732,399.789154 
	C933.001465,391.185059 937.011780,386.460175 945.484497,385.078156 
	C956.506042,383.280457 962.703430,388.305634 962.959656,399.504456 
	C963.134949,407.165924 962.997253,414.834564 962.999512,423.500000 
M703.997498,445.267151 
	C703.998535,429.614105 704.151306,413.958649 703.899902,398.309662 
	C703.832214,394.095093 703.113464,389.689880 701.674805,385.743561 
	C699.252136,379.097931 694.636597,373.692444 687.538940,372.223969 
	C676.419739,369.923431 665.564819,370.377563 657.295532,380.453186 
	C656.319397,378.487976 655.490662,377.053284 654.873108,375.532806 
	C652.989929,370.895874 648.894897,371.536499 645.566589,372.394775 
	C644.287781,372.724518 643.125305,376.237823 643.108826,378.310059 
	C642.933594,400.289551 642.993164,422.270966 643.013550,444.251831 
	C643.015198,446.016663 643.206116,447.781311 643.311462,449.587036 
	C648.398621,449.587036 652.950439,449.587036 658.000488,449.587036 
	C658.000488,447.211090 658.000488,445.245117 658.000488,443.279144 
	C658.000549,428.958282 658.403442,414.621063 657.824280,400.323669 
	C657.550171,393.556274 660.500610,389.794830 665.744873,386.826935 
	C674.088989,382.104675 684.827087,385.080322 687.434875,393.126068 
	C688.484192,396.363464 688.889465,399.928558 688.931213,403.352570 
	C689.095825,416.838806 688.988037,430.328308 689.012817,443.816498 
	C689.016296,445.741791 689.193176,447.666718 689.309143,449.975830 
	C693.517944,449.975830 697.160889,449.879700 700.796021,450.006592 
	C703.643616,450.105988 704.130127,448.487274 703.997498,445.267151 
M1634.319824,384.999969 
	C1636.081421,384.894470 1637.843018,384.788971 1640.000000,384.659821 
	C1640.000000,382.316956 1640.001709,380.508118 1639.999878,378.699280 
	C1639.993042,372.129150 1639.905640,372.032104 1633.252808,372.003723 
	C1628.663208,371.984131 1624.073364,371.999939 1618.944580,371.999939 
	C1618.944580,364.947815 1618.944580,358.693909 1618.944580,351.440643 
	C1614.494751,353.153290 1610.709473,354.273499 1607.288696,356.083130 
	C1605.807007,356.867035 1604.361206,358.982330 1604.151489,360.650330 
	C1603.684204,364.366180 1604.005737,368.181183 1604.005737,371.929016 
	C1594.239502,372.121094 1593.298828,373.665344 1595.760498,384.665894 
	C1598.254883,384.895142 1600.832153,385.131989 1603.998779,385.423004 
	C1603.998779,387.629700 1603.998657,389.581696 1603.998779,391.533691 
	C1603.999878,404.356476 1603.922974,417.179932 1604.026855,430.001862 
	C1604.109863,440.242554 1613.149414,450.456970 1622.980591,450.863983 
	C1629.233276,451.122864 1635.536865,450.343048 1641.804199,449.855835 
	C1642.802490,449.778198 1644.595825,448.708679 1644.552490,448.230743 
	C1644.216919,444.525543 1643.840576,440.744690 1642.662354,437.262756 
	C1642.430298,436.576843 1638.584473,436.663696 1636.562256,437.108093 
	C1625.214966,439.601440 1619.053101,434.788605 1619.010620,423.094299 
	C1618.971191,412.270020 1618.987183,401.445435 1619.016968,390.621063 
	C1619.021851,388.866852 1619.224854,387.113129 1619.359009,385.000671 
	C1624.407471,385.000671 1628.885864,385.000671 1634.319824,384.999969 
M1345.000000,370.500000 
	C1345.000000,390.136047 1344.984741,409.772095 1345.005371,429.408112 
	C1345.020752,444.043732 1358.117310,453.938232 1372.668457,450.153564 
	C1372.668457,445.955933 1372.668457,441.711700 1372.668457,437.533936 
	C1362.628174,435.599091 1360.002075,432.376678 1360.000854,422.303894 
	C1359.997925,397.675659 1359.999878,373.047394 1359.999756,348.419159 
	C1359.999756,346.481262 1359.999756,344.543365 1359.999756,342.347900 
	C1354.733643,342.347900 1350.182983,342.347900 1345.000000,342.347900 
	C1345.000000,351.621613 1345.000000,360.560791 1345.000000,370.500000 
M606.056274,347.967926 
	C606.038391,380.127960 606.020020,412.288025 606.004761,444.448059 
	C606.004333,445.280945 605.743591,446.290771 606.116821,446.908203 
	C606.797241,448.033936 607.804199,449.709442 608.777283,449.781891 
	C613.009277,450.097107 617.278015,449.917236 621.584473,449.917236 
	C621.584473,414.597260 621.584473,380.045532 621.584473,345.000519 
	C618.371643,345.000519 615.536804,344.737915 612.777893,345.082764 
	C610.530640,345.363647 608.374146,346.371613 606.056274,347.967926 
M1865.925659,373.079834 
	C1862.829346,375.412323 1859.733032,377.744781 1856.507080,380.174988 
	C1855.313721,371.963989 1855.313721,371.964020 1847.033569,371.999908 
	C1846.534546,372.002075 1846.031860,372.042206 1845.536987,371.997894 
	C1841.447998,371.631714 1839.883789,373.504059 1839.953369,377.567780 
	C1840.112671,386.880951 1839.999756,396.198822 1839.999878,405.514771 
	C1840.000122,418.656921 1839.905151,431.800751 1840.125488,444.939240 
	C1840.153442,446.612122 1841.659546,449.534241 1842.780273,449.687439 
	C1846.954224,450.258118 1851.252930,449.915253 1856.000366,449.915253 
	C1856.000366,447.220001 1856.000122,445.256775 1856.000244,443.293549 
	C1856.001587,430.151398 1855.676392,416.998352 1856.112671,403.870667 
	C1856.434937,394.173279 1863.211792,383.435150 1874.558350,385.062103 
	C1877.113525,385.428467 1879.597778,386.289154 1882.339355,386.978821 
	C1884.394409,382.148804 1886.358887,377.531586 1889.025391,371.264252 
	C1880.547852,371.871338 1873.613281,372.367950 1865.925659,373.079834 
M797.934204,385.648987 
	C800.838135,385.905701 803.742065,386.162415 806.999451,386.450378 
	C806.999451,388.901733 806.999390,390.877380 806.999451,392.852997 
	C806.999573,408.320007 806.920044,423.787567 807.025513,439.253845 
	C807.107422,451.265411 804.985779,449.879120 818.526001,450.025177 
	C821.669861,450.059052 823.034180,448.931732 823.024475,445.672394 
	C822.955566,422.555267 822.961121,399.437775 823.018860,376.320587 
	C823.026306,373.345306 821.731079,372.035767 818.876587,372.026886 
	C815.550415,372.016571 812.222473,371.934570 808.898376,372.012970 
	C796.503967,372.305267 796.347900,369.178284 797.934204,385.648987 
M817.791687,362.383575 
	C821.910034,361.737793 824.225525,359.148010 824.909973,355.232208 
	C825.547913,351.582947 824.602661,348.265961 821.371277,346.068512 
	C818.184509,343.901459 814.644287,342.671753 811.279968,345.393066 
	C808.076172,347.984619 804.645508,350.925507 806.459961,355.799133 
	C808.235718,360.568817 811.665649,363.278931 817.791687,362.383575 
z"/>
<path fill="#D51820" opacity="1.000000" stroke="none" 
	d="
M0.999998,504.468658 
	C3.248438,494.621033 5.024223,485.095947 7.866553,475.900543 
	C11.315550,464.742493 14.583559,453.310333 19.859652,442.982635 
	C29.517750,424.077362 40.494301,405.839294 51.102173,387.427338 
	C63.055489,366.680054 75.170753,346.025726 87.286812,325.372711 
	C97.405586,308.124268 107.629295,290.937439 117.802620,273.720978 
	C129.306503,254.252823 140.834091,234.798615 152.294846,215.305099 
	C157.564041,206.342773 162.628784,197.259354 167.980423,188.347473 
	C168.665176,187.207214 170.524490,186.111145 171.841751,186.108673 
	C203.834534,186.048599 235.827606,186.139725 267.820618,186.210815 
	C267.977692,186.211166 268.134583,186.314072 268.953033,186.600891 
	C265.182495,192.976120 261.563416,199.301620 257.749329,205.507278 
	C243.593994,228.538651 229.391754,251.541229 215.175003,274.534790 
	C193.585876,309.452118 172.005722,344.375153 150.356125,379.255005 
	C124.070145,421.604492 97.679466,463.889038 71.409836,506.248657 
	C61.357426,522.458008 55.659420,540.217346 56.183384,559.258972 
	C56.765453,580.412292 68.665680,592.663025 88.510384,594.335266 
	C96.000046,594.966431 104.057472,592.040527 111.484619,589.603882 
	C129.704788,583.626099 144.923981,572.600952 158.832047,559.657837 
	C169.161530,550.045044 179.736313,540.672607 189.679199,530.673462 
	C201.876572,518.407043 213.531418,505.601074 225.406647,493.014984 
	C225.715927,492.687195 225.860641,492.204163 226.336792,491.321228 
	C224.623215,491.199707 223.219330,491.014343 221.815323,491.013306 
	C197.488556,490.995667 173.161530,491.053436 148.835281,490.939423 
	C145.487991,490.923767 143.625839,491.835175 141.864410,494.965118 
	C134.577164,507.914246 126.797218,520.585083 119.320999,533.429626 
	C117.671318,536.263855 116.028244,537.138062 112.513367,536.445618 
	C108.363312,535.628052 103.928932,536.253723 99.624268,536.253723 
	C99.602158,531.496094 291.423096,207.483749 300.957367,195.764481 
	C302.655151,198.480042 304.404205,200.942566 305.815704,203.585358 
	C327.531342,244.243881 349.209106,284.922638 370.882294,325.603821 
	C381.352142,345.256012 391.766907,364.937622 402.255219,384.579895 
	C418.116394,414.284302 434.014740,443.968811 449.909882,473.655029 
	C453.253693,479.900055 456.651947,486.115936 460.298889,493.028503 
	C465.822205,494.014191 471.071625,494.579163 476.321350,494.581573 
	C809.418213,494.734833 1142.515137,494.850769 1475.612061,494.948914 
	C1582.588257,494.980408 1689.564331,495.003113 1796.540527,494.932892 
	C1849.193604,494.898315 1901.846558,494.689758 1954.498779,494.405792 
	C1959.177002,494.380554 1961.039062,495.629517 1960.856323,500.572449 
	C1960.517944,509.724701 1960.774048,518.898376 1960.753784,528.063049 
	C1960.739380,534.544556 1960.641357,534.642578 1953.942993,534.682922 
	C1938.617065,534.775269 1923.290771,534.842651 1907.501709,534.859802 
	C1844.198486,534.777893 1781.358398,534.755615 1718.518311,534.742737 
	C1717.690308,534.742554 1716.862427,534.862000 1715.569946,534.858215 
	C1712.940063,534.758667 1710.774780,534.698364 1708.609375,534.698303 
	C1294.890137,534.694214 881.171021,534.693970 467.451843,534.703857 
	C464.956482,534.703918 462.461090,534.848511 459.502655,534.863892 
	C427.366577,534.853027 395.693573,534.903809 363.556030,534.875610 
	C352.428711,534.677246 341.766022,534.492859 331.103027,534.471741 
	C327.023895,534.463623 322.944031,534.829346 318.864502,535.024780 
	C311.290527,520.349915 303.716583,505.675079 296.057678,490.835693 
	C277.278900,490.835693 258.342926,490.835693 240.813080,490.835693 
	C227.788437,506.564697 215.574844,521.714661 202.927689,536.493530 
	C183.957230,558.661621 161.499619,576.746643 136.622406,591.905212 
	C119.218102,602.510376 100.878105,610.707214 80.061157,609.802856 
	C58.079002,608.848022 37.657265,603.092957 22.319117,585.748779 
	C12.122829,574.218872 6.223679,560.587036 3.026801,545.670166 
	C2.579738,543.584167 2.111778,541.502625 1.326747,539.209473 
	C1.000000,527.645752 1.000000,516.291565 0.999998,504.468658 
M174.895996,439.352753 
	C168.039871,450.934937 161.183746,462.517120 153.981689,474.683685 
	C199.026398,474.683685 243.024170,474.683685 287.731628,474.683685 
	C267.321960,433.509827 247.178192,392.872467 226.412399,350.980194 
	C208.738953,381.177338 191.922089,409.910889 174.895996,439.352753 
z"/>
<path fill="#D51820" opacity="1.000000" stroke="none" 
	d="
M456.000244,559.833435 
	C468.151489,559.889404 480.304840,559.847473 492.451660,560.108887 
	C494.233246,560.147217 496.894318,561.147400 497.613556,562.511719 
	C510.535553,587.023071 523.221069,611.658997 535.978638,636.634155 
	C482.312439,637.000000 428.624878,637.000000 374.468658,637.000000 
	C369.876434,628.403625 365.883484,619.741577 361.601074,611.225098 
	C353.693298,595.498596 345.606354,579.862183 337.625122,564.172485 
	C336.914429,562.775330 336.431061,561.262573 335.536591,559.046692 
	C358.280640,559.046692 380.175018,559.046692 402.878540,559.339844 
	C421.125183,559.699768 438.562714,559.766602 456.000244,559.833435 
z"/>
<path fill="#D51820" opacity="1.000000" stroke="none" 
	d="
M310.531372,1.000000 
	C326.001831,6.532962 332.064667,18.660957 332.657990,33.291176 
	C332.975220,41.112957 331.127625,49.498367 328.305176,56.883453 
	C319.433655,80.096123 303.452301,97.289635 280.709930,107.517944 
	C269.784637,112.431549 258.121338,114.907623 246.218262,110.577797 
	C235.098373,106.532867 228.273132,98.520325 226.048096,86.896179 
	C222.403076,67.853745 229.281693,51.452606 239.725677,36.274097 
	C251.322693,19.419876 266.745148,7.434014 286.810944,1.317663 
	C294.687592,1.000000 302.375153,1.000000 310.531372,1.000000 
z"/>
<path fill="#020000" opacity="1.000000" stroke="none" 
	d="
M2001.000000,341.536804 
	C1999.913330,344.176208 1998.937256,346.416382 1997.720947,348.517517 
	C1992.671021,357.241730 1981.291626,362.574432 1971.436768,360.919922 
	C1960.877563,359.147125 1952.744263,350.871796 1950.242432,339.355286 
	C1948.344727,330.619507 1953.533569,318.369690 1961.592529,313.475891 
	C1975.499268,305.031006 1995.548584,310.506012 2000.696533,328.801636 
	C2001.000000,333.024536 2001.000000,337.049103 2001.000000,341.536804 
M1964.233154,350.620789 
	C1972.885498,356.641022 1979.263428,356.455414 1988.636475,349.709930 
	C1997.055176,342.012268 1997.377808,330.614014 1990.413330,322.518494 
	C1983.835205,314.872009 1973.081543,313.027557 1962.777344,320.800232 
	C1961.061523,323.151855 1958.878906,325.294708 1957.716553,327.893799 
	C1954.104004,335.973541 1957.414795,346.923401 1964.233154,350.620789 
z"/>
<path fill="#D51820" opacity="1.000000" stroke="none" 
	d="
M564.528931,195.116791 
	C566.570068,194.547989 568.324219,194.040970 570.079895,194.035873 
	C589.569519,193.979126 609.060425,193.883575 628.548523,194.064819 
	C635.149658,194.126221 641.743896,194.940216 649.480408,195.491455 
	C598.346008,288.027008 547.405212,380.212189 495.829681,473.546082 
	C491.683472,466.832886 488.240204,461.510376 485.047577,456.041504 
	C475.328796,439.393646 465.799438,422.634583 455.986938,406.042633 
	C453.269379,401.447510 453.236664,397.777130 456.035187,392.935242 
	C466.357330,375.076477 476.096802,356.880951 486.056000,338.812408 
	C500.630737,312.370117 515.274536,285.965637 529.753784,259.471130 
	C537.664917,244.995026 545.272278,230.353134 553.067261,215.813156 
	C556.730713,208.979614 560.513733,202.210175 564.528931,195.116791 
z"/>
<path fill="#000000" opacity="1.000000" stroke="none" 
	d="
M1487.984863,410.595886 
	C1487.993042,388.778381 1487.993042,367.311127 1487.993042,345.423462 
	C1493.031250,345.423462 1497.586792,345.423462 1502.574951,345.423462 
	C1502.574951,380.363892 1502.574951,415.254395 1502.574951,450.465942 
	C1499.308472,451.473969 1497.043457,450.994263 1494.769165,447.731720 
	C1479.643677,426.034393 1464.273193,404.507721 1448.962402,382.939697 
	C1448.336670,382.058258 1447.512817,381.317444 1446.000488,379.650513 
	C1446.000488,382.502747 1446.000366,384.263336 1446.000366,386.023926 
	C1446.000244,405.187744 1445.856079,424.353363 1446.100586,443.514069 
	C1446.162354,448.348053 1445.138062,450.344025 1439.812744,450.120361 
	C1428.778442,449.656921 1430.025879,451.015686 1430.012329,440.003510 
	C1429.975830,410.341339 1429.959595,380.678864 1430.091919,351.017212 
	C1430.100708,349.048340 1430.953857,345.863892 1432.230591,345.374390 
	C1434.869263,344.362823 1437.512573,344.797729 1439.782959,347.994751 
	C1454.321533,368.466949 1469.200562,388.697601 1484.038330,408.955994 
	C1484.898193,410.129883 1485.277466,413.082001 1487.984863,410.595886 
z"/>
<path fill="#000000" opacity="1.000000" stroke="none" 
	d="
M1233.119751,373.592712 
	C1236.699463,375.981628 1238.509033,373.623535 1239.763916,371.348877 
	C1242.161743,367.002136 1244.404541,367.549286 1247.347900,370.757721 
	C1249.134888,372.705750 1251.388428,374.225739 1253.961426,376.380859 
	C1250.796021,379.224548 1248.422119,381.357178 1246.121826,383.423676 
	C1251.392456,395.821503 1252.530029,407.687134 1243.907349,418.818329 
	C1237.780518,426.727661 1229.179810,429.595001 1219.597778,429.950562 
	C1214.456665,430.141357 1209.473755,430.441772 1204.622803,434.366425 
	C1209.262939,436.997803 1213.588379,435.782104 1217.849731,435.606293 
	C1224.874634,435.316406 1232.039795,434.361725 1238.905762,435.352081 
	C1246.858154,436.499176 1252.326782,441.979797 1253.776978,450.093811 
	C1255.390991,459.124084 1252.527832,466.903625 1244.942749,472.429962 
	C1231.177612,482.458984 1204.264404,480.962585 1191.011108,469.249451 
	C1193.050537,466.055908 1194.848022,462.524597 1197.394409,459.658752 
	C1198.239990,458.706970 1201.372192,458.781158 1202.837769,459.558167 
	C1209.539917,463.111603 1216.379883,466.072784 1224.112671,464.898285 
	C1227.932373,464.318115 1232.005249,463.358215 1235.182983,461.340668 
	C1237.188965,460.067047 1238.897461,456.387268 1238.622070,454.034454 
	C1238.375488,451.927307 1235.457642,448.889313 1233.317871,448.507843 
	C1228.960205,447.731018 1224.271606,448.042572 1219.830933,448.681793 
	C1213.436401,449.602203 1207.190674,451.146423 1200.828247,448.430389 
	C1196.577271,446.615692 1193.466919,444.170044 1192.977539,439.178162 
	C1192.426636,433.558136 1194.366455,429.469513 1199.615601,427.105072 
	C1200.514771,426.700043 1201.363525,426.183075 1202.596680,425.525177 
	C1200.043335,422.817688 1197.326050,420.471436 1195.255005,417.650818 
	C1184.420288,402.894135 1189.211304,375.408783 1213.371826,372.146332 
	C1219.677734,371.294800 1226.314941,372.898315 1233.119751,373.592712 
M1214.934570,415.936096 
	C1222.865845,418.158936 1229.125122,415.968445 1232.093384,409.545380 
	C1234.767578,403.758057 1234.960449,397.730316 1232.325317,391.832184 
	C1229.720947,386.002747 1222.701538,382.997620 1216.679565,384.666260 
	C1209.434082,386.673950 1206.131470,391.811249 1205.723755,398.785767 
	C1205.310303,405.857483 1207.375977,412.077667 1214.934570,415.936096 
z"/>
<path fill="#DE837C" opacity="1.000000" stroke="none" 
	d="
M1907.964722,534.920166 
	C1923.290771,534.842651 1938.617065,534.775269 1953.942993,534.682922 
	C1960.641357,534.642578 1960.739380,534.544556 1960.753784,528.063049 
	C1960.774048,518.898376 1960.517944,509.724701 1960.856323,500.572449 
	C1961.039062,495.629517 1959.177002,494.380554 1954.498779,494.405792 
	C1901.846558,494.689758 1849.193604,494.898315 1796.540527,494.932892 
	C1689.564331,495.003113 1582.588257,494.980408 1475.612061,494.948914 
	C1142.515137,494.850769 809.418213,494.734833 476.321350,494.581573 
	C471.071625,494.579163 465.822205,494.014191 460.405151,493.378906 
	C462.320831,492.698486 464.403931,492.046967 466.487152,492.046539 
	C687.117310,492.000549 907.747498,491.878265 1128.377563,492.035370 
	C1402.618408,492.230652 1676.858887,492.659241 1951.099609,492.986908 
	C1952.932617,492.989105 1954.785767,493.161682 1956.594727,492.953522 
	C1960.628540,492.489288 1962.154907,493.910553 1962.089355,498.182709 
	C1961.993042,504.459259 1962.902954,510.746857 1962.917969,517.030823 
	C1962.930908,522.479675 1962.291260,527.929688 1961.948120,533.379761 
	C1961.718384,537.030029 1958.664551,536.776733 1956.452881,536.891357 
	C1951.055542,537.171082 1945.631592,537.099548 1940.223389,536.963684 
	C1929.771362,536.700989 1919.322998,536.296448 1908.415527,535.664795 
	C1907.958130,535.378845 1907.964722,534.920166 1907.964722,534.920166 
z"/>
<path fill="#010000" opacity="1.000000" stroke="none" 
	d="
M1657.302979,402.565399 
	C1653.910767,392.453064 1650.685059,382.702332 1647.157715,372.039307 
	C1652.686646,372.039307 1656.833130,371.817535 1660.927490,372.182098 
	C1662.071289,372.283966 1663.597778,373.928467 1664.037231,375.184235 
	C1667.797974,385.932922 1671.346924,396.755707 1674.963867,407.554749 
	C1676.097046,410.937836 1677.244751,414.316040 1678.833740,419.023102 
	C1682.139038,411.185394 1684.984741,404.618927 1687.682617,397.992310 
	C1690.859863,390.188660 1693.835083,382.301849 1697.098877,374.535492 
	C1697.551758,373.457825 1699.244263,372.113586 1700.202759,372.228485 
	C1701.498047,372.383667 1703.248047,373.574249 1703.751099,374.764984 
	C1709.020142,387.235840 1714.056519,399.804749 1719.217529,412.321686 
	C1720.095825,414.452179 1721.259888,416.464935 1722.636719,419.222382 
	C1724.862671,413.086395 1726.921997,407.495392 1728.919800,401.882416 
	C1732.074219,393.020721 1735.224121,384.156952 1738.293335,375.265594 
	C1739.080688,372.984772 1740.192261,371.973724 1742.868042,371.916656 
	C1754.590820,371.666565 1754.745972,371.605103 1750.986328,382.395081 
	C1743.440796,404.051117 1735.758911,425.660522 1727.934082,447.216827 
	C1727.370972,448.768188 1725.299683,450.469513 1723.722656,450.703064 
	C1722.719971,450.851562 1720.861450,448.623047 1720.194092,447.105316 
	C1713.759277,432.469666 1707.495972,417.758606 1700.634155,401.790436 
	C1697.080933,410.161530 1694.043457,417.316772 1691.006592,424.472198 
	C1687.776123,432.083801 1684.683228,439.759186 1681.204590,447.255615 
	C1680.473145,448.831726 1678.281006,450.749451 1676.843750,450.684937 
	C1675.471313,450.623352 1673.592285,448.405884 1672.989380,446.752045 
	C1667.682373,432.192444 1662.610840,417.547028 1657.302979,402.565399 
z"/>
<path fill="#000000" opacity="1.000000" stroke="none" 
	d="
M761.253174,449.598267 
	C753.986816,449.808105 746.917419,450.861023 740.242126,449.682404 
	C729.189331,447.730835 719.255920,434.435822 717.848267,423.270508 
	C716.645386,413.728821 716.438599,404.394745 720.095764,395.492035 
	C725.582581,382.135376 734.772827,372.438690 749.908752,371.272797 
	C756.047424,370.799896 762.383789,372.894287 768.999512,373.875244 
	C768.999512,369.495697 768.999512,364.213135 768.999512,358.930573 
	C768.999512,353.614929 768.999512,348.299286 768.999512,342.492798 
	C773.874878,342.492798 778.428406,342.492798 783.663696,342.492798 
	C783.766479,344.031494 783.983276,345.774017 783.984314,347.516632 
	C784.004517,379.809570 783.925415,412.102875 784.085999,444.395020 
	C784.107666,448.746796 782.881042,450.613922 778.444336,450.033386 
	C776.807678,449.819244 775.053955,450.285156 773.472107,449.923004 
	C771.599121,449.494232 769.854187,448.505981 768.053711,447.760223 
	C768.119507,447.288574 768.185303,446.816925 768.251038,446.345276 
	C766.043091,447.376373 763.835205,448.407471 761.253174,449.598267 
M743.150146,388.452698 
	C740.426697,392.332458 737.061157,395.913574 735.093201,400.144684 
	C727.387451,416.711639 735.875916,433.778961 753.388489,437.665771 
	C762.160278,439.612610 768.996826,434.183350 768.998779,425.264618 
	C769.000977,415.463959 769.010803,405.663239 768.993408,395.862610 
	C768.984253,390.695526 766.520203,387.337830 761.412231,385.778320 
	C755.222961,383.888641 749.365967,384.976105 743.150146,388.452698 
z"/>
<path fill="#010000" opacity="1.000000" stroke="none" 
	d="
M1026.326416,436.307770 
	C1038.252808,406.635681 1049.953003,377.286865 1061.821899,348.006470 
	C1062.477539,346.388916 1064.765625,344.101562 1065.886108,344.310699 
	C1067.641602,344.638367 1069.815308,346.537720 1070.483276,348.280609 
	C1076.209106,363.221069 1081.580811,378.296692 1087.166138,393.291748 
	C1093.673584,410.762482 1100.294067,428.191132 1106.847290,445.644836 
	C1107.194336,446.569397 1107.373047,447.557159 1107.971802,449.788147 
	C1102.281860,449.788147 1096.953857,449.950989 1091.655151,449.630280 
	C1090.756836,449.575897 1089.660034,447.554504 1089.212402,446.250580 
	C1087.659668,441.728271 1086.604248,437.020813 1084.830566,432.595886 
	C1084.108154,430.793762 1082.070557,428.278931 1080.561646,428.229767 
	C1069.266113,427.861633 1057.953247,428.029449 1046.635620,428.029449 
	C1044.348999,434.447266 1042.338501,440.550995 1039.936768,446.496704 
	C1039.358643,447.927795 1037.565063,449.693054 1036.188843,449.824707 
	C1031.753174,450.249084 1027.251465,449.982849 1021.354492,449.982849 
	C1023.138184,445.007935 1024.637207,440.826752 1026.326416,436.307770 
M1074.992676,415.978668 
	C1077.947388,416.085358 1078.195557,414.709900 1077.377197,412.212189 
	C1073.466675,400.276733 1069.685669,388.298828 1065.451172,375.062256 
	C1060.375000,389.360901 1055.764771,402.346893 1050.920532,415.992249 
	C1059.501221,415.992249 1066.792358,415.992249 1074.992676,415.978668 
z"/>
<path fill="#000000" opacity="1.000000" stroke="none" 
	d="
M1933.006714,432.006927 
	C1929.176758,425.805084 1925.467896,419.947510 1921.366455,413.470093 
	C1916.192749,418.647064 1909.574097,421.957214 1910.872192,430.876648 
	C1911.584351,435.768646 1910.916626,440.852173 1911.013916,445.846558 
	C1911.071777,448.823578 1909.812378,450.105011 1906.840332,450.010315 
	C1903.532227,449.904877 1900.218262,449.986145 1896.454834,449.986145 
	C1896.454834,414.053009 1896.454834,378.513519 1896.454834,342.092590 
	C1900.406616,342.092590 1904.529907,341.747131 1908.518433,342.327179 
	C1909.559937,342.478638 1910.872559,345.503113 1910.890747,347.220490 
	C1911.069092,364.039886 1910.999634,380.861877 1911.000366,397.683105 
	C1911.000488,399.503296 1911.000488,401.323486 1911.000488,404.834778 
	C1916.672485,398.169739 1921.456421,392.638428 1926.135864,387.019958 
	C1929.622192,382.834106 1932.952637,378.518555 1936.407837,374.306244 
	C1936.908691,373.695648 1937.655029,373.103455 1938.396240,372.902527 
	C1943.847412,371.424988 1949.269653,371.532806 1955.786499,373.151672 
	C1947.241577,383.369354 1939.336060,392.822479 1931.354370,402.366638 
	C1941.102783,417.851227 1950.797852,433.251038 1961.289551,449.916229 
	C1954.930908,449.916229 1950.194580,450.054840 1945.479248,449.801819 
	C1944.510864,449.749878 1943.400146,448.379486 1942.732666,447.367676 
	C1939.460938,442.408386 1936.316895,437.364929 1933.006714,432.006927 
z"/>
<path fill="#010000" opacity="1.000000" stroke="none" 
	d="
M1299.847656,451.000427 
	C1280.282471,452.538025 1265.107788,440.171814 1261.704102,422.124451 
	C1257.649780,400.627808 1265.602417,379.525085 1286.560181,372.936737 
	C1305.396118,367.015472 1327.263062,375.362030 1331.244873,396.095703 
	C1332.078735,400.437866 1331.979248,405.016602 1331.833374,409.470703 
	C1331.725586,412.763184 1329.669312,414.113617 1326.143799,414.070404 
	C1311.983643,413.896759 1297.820312,414.000488 1283.658081,414.001648 
	C1281.685425,414.001801 1279.712769,414.001648 1277.861572,414.001648 
	C1275.842285,423.483734 1283.267822,434.430084 1292.743408,437.011932 
	C1300.771973,439.199493 1308.197998,437.645996 1314.908691,433.309692 
	C1318.057617,431.274933 1319.374146,432.019928 1321.158325,434.636566 
	C1326.420044,442.353790 1326.484985,443.476898 1318.023315,446.806671 
	C1312.437134,449.004852 1306.242065,449.656036 1299.847656,451.000427 
M1304.477051,401.998596 
	C1308.542480,401.998596 1312.608032,401.998596 1316.778931,401.998596 
	C1314.728760,389.237030 1308.133545,384.374969 1294.773193,385.010712 
	C1285.873901,385.434204 1278.791016,392.451660 1278.031250,401.998596 
	C1286.534302,401.998596 1295.009033,401.998596 1304.477051,401.998596 
z"/>
<path fill="#000000" opacity="1.000000" stroke="none" 
	d="
M1537.786255,448.360870 
	C1519.247925,440.099396 1513.931030,421.236206 1516.418457,404.260162 
	C1518.188354,392.181488 1524.270142,382.560303 1534.604248,376.018463 
	C1541.323608,371.764801 1548.658936,370.705902 1556.814819,371.575195 
	C1565.322388,372.481995 1572.537720,375.032196 1578.521118,381.034149 
	C1586.765137,389.303833 1587.857056,399.669312 1586.850952,410.533295 
	C1586.550781,413.773712 1583.938110,414.029633 1581.240845,414.020355 
	C1567.095215,413.971771 1552.949097,413.999756 1538.803223,414.001038 
	C1536.828247,414.001221 1534.853149,414.001038 1532.993408,414.001038 
	C1530.596069,422.885315 1538.352417,432.944489 1544.085938,435.492645 
	C1553.232910,439.557709 1562.056152,438.715149 1570.390991,433.165436 
	C1572.906006,431.490875 1574.541016,431.388550 1576.288452,434.539398 
	C1581.043335,443.112427 1581.320679,443.275269 1572.319824,447.222656 
	C1561.182861,452.106873 1549.694336,452.720673 1537.786255,448.360870 
M1534.076782,396.808289 
	C1533.708130,398.314941 1533.339478,399.821564 1532.902100,401.609009 
	C1546.240356,401.609009 1558.927979,401.609009 1571.616089,401.609009 
	C1571.519043,393.652863 1565.803223,386.439484 1558.064819,385.260529 
	C1548.887451,383.862396 1539.196777,385.450592 1534.076782,396.808289 
z"/>
<path fill="#010000" opacity="1.000000" stroke="none" 
	d="
M855.798523,372.607086 
	C863.540771,372.343933 871.229431,370.915039 878.224670,372.515991 
	C891.522461,375.559357 897.234009,383.616547 897.904480,398.145935 
	C898.387878,408.620697 897.567505,419.162689 898.220703,429.618988 
	C898.476624,433.716217 901.337158,437.605072 902.687378,441.695862 
	C903.568298,444.364899 903.865662,447.226532 904.515503,450.454193 
	C895.696289,451.948883 889.367004,449.680756 884.733704,442.612915 
	C876.714355,450.324890 867.008606,452.204926 856.676636,450.660614 
	C847.476257,449.285461 841.618042,443.280121 838.897949,434.621552 
	C836.146667,425.863434 838.336975,417.768982 844.487976,411.134094 
	C851.300842,403.785278 859.830811,399.770264 870.089050,399.985687 
	C873.876587,400.065277 877.667175,399.998566 881.231873,399.998566 
	C884.551941,389.859894 874.348633,383.960480 865.281982,385.540039 
	C859.273071,386.586853 853.506531,389.024963 847.315247,390.937988 
	C846.060120,388.559906 843.922363,385.520233 842.921814,382.143524 
	C842.487976,380.679443 843.908630,377.706268 845.342896,376.846405 
	C848.410278,375.007629 852.035217,374.099060 855.798523,372.607086 
M882.979431,415.967560 
	C881.966187,414.691284 881.168396,412.606262 879.904724,412.269501 
	C871.462097,410.019653 863.906189,412.428314 857.574524,418.074402 
	C851.883972,423.148865 851.621582,432.427460 856.836731,435.978210 
	C862.549744,439.867920 868.583435,439.718384 874.595764,436.375549 
	C879.726868,433.522705 884.127686,430.302032 883.048767,423.350311 
	C882.721313,421.240753 882.994446,419.037964 882.979431,415.967560 
z"/>
<path fill="#010000" opacity="1.000000" stroke="none" 
	d="
M1767.224609,440.723511 
	C1757.076172,427.653046 1756.185669,413.078491 1759.362793,398.054108 
	C1762.499146,383.222839 1773.588501,372.091522 1790.161377,371.151276 
	C1810.490234,369.997925 1826.009521,381.954926 1826.878052,404.427490 
	C1827.232056,413.590149 1828.168579,422.882172 1823.757080,431.778107 
	C1815.445557,448.538544 1801.968018,452.558441 1785.942017,450.666626 
	C1778.585327,449.798248 1772.516113,446.335693 1767.224609,440.723511 
M1774.638184,404.238342 
	C1774.998413,411.270844 1774.673218,418.426514 1775.908569,425.301758 
	C1777.181641,432.387238 1783.480957,437.447510 1789.470337,437.977753 
	C1798.278564,438.757599 1804.239014,435.728729 1807.877197,428.258850 
	C1813.861938,415.971069 1813.212769,403.687683 1807.198242,391.627106 
	C1804.529785,386.276245 1796.020874,382.887878 1790.082397,384.456421 
	C1780.892212,386.883820 1775.354248,393.781464 1774.638184,404.238342 
z"/>
<path fill="#000000" opacity="1.000000" stroke="none" 
	d="
M1177.000244,424.000000 
	C1176.999146,431.330017 1176.866333,438.163635 1177.051392,444.988617 
	C1177.146240,448.483673 1176.255859,450.156433 1172.344116,450.061005 
	C1159.979248,449.759369 1161.023560,451.579468 1161.004150,438.898285 
	C1160.984619,426.071167 1160.882690,413.242462 1161.053345,400.417572 
	C1161.127686,394.818573 1160.365234,389.148071 1155.330688,386.497192 
	C1149.571045,383.464722 1143.089478,384.278625 1137.186646,387.436218 
	C1132.737427,389.816193 1130.683716,393.084167 1130.846313,398.595917 
	C1131.293091,413.742065 1130.860596,428.912140 1131.085938,444.068115 
	C1131.151978,448.506927 1130.042480,450.263947 1125.263916,450.100708 
	C1113.693726,449.705444 1115.040039,451.132904 1115.013672,439.959381 
	C1114.965210,419.469421 1114.980469,398.979187 1115.024170,378.489197 
	C1115.029907,375.825592 1114.057129,372.334015 1118.451538,372.098694 
	C1122.364014,371.889191 1126.703247,371.086975 1128.055420,376.602936 
	C1128.321289,377.686981 1129.005005,378.668518 1129.688721,380.101379 
	C1130.880249,379.176208 1131.965820,378.495880 1132.855713,377.617249 
	C1142.040161,368.549835 1162.878052,368.853394 1169.688965,378.470306 
	C1172.701294,382.723511 1175.142700,388.082367 1175.750610,393.188446 
	C1176.942505,403.199982 1176.667847,413.386108 1177.000244,424.000000 
z"/>
<path fill="#000000" opacity="1.000000" stroke="none" 
	d="
M962.999512,423.000000 
	C962.997253,414.834564 963.134949,407.165924 962.959656,399.504456 
	C962.703430,388.305634 956.506042,383.280457 945.484497,385.078156 
	C937.011780,386.460175 933.001465,391.185059 933.000732,399.789154 
	C932.999451,414.453461 932.865234,429.119720 933.075562,443.781006 
	C933.143372,448.507477 931.649719,450.575409 926.755981,450.056610 
	C923.815674,449.744934 920.815369,449.999359 917.306030,449.999359 
	C917.189636,447.629181 917.014038,445.699066 917.012329,443.768860 
	C916.992798,422.105652 916.967468,400.442322 917.045471,378.779388 
	C917.054199,376.352600 915.782959,372.858582 919.684265,372.255402 
	C923.354614,371.687927 927.497681,370.847443 929.401733,375.781921 
	C929.931091,377.153809 930.812866,378.389648 931.683899,379.959900 
	C932.451111,379.494843 933.229126,379.204315 933.765198,378.670715 
	C940.393311,372.073517 948.206116,370.697540 957.376099,371.700012 
	C966.574890,372.705688 972.677979,377.042847 975.840332,385.205444 
	C977.658813,389.899048 978.727661,395.147980 978.859192,400.180237 
	C979.246521,415.001099 978.873596,429.840271 979.077637,444.668427 
	C979.134705,448.813446 977.804932,450.191772 973.660950,450.069977 
	C961.120361,449.701355 963.200928,451.524475 963.013489,439.497192 
	C962.930420,434.166016 962.999573,428.832458 962.999512,423.000000 
z"/>
<path fill="#000000" opacity="1.000000" stroke="none" 
	d="
M703.993896,445.739044 
	C704.130127,448.487274 703.643616,450.105988 700.796021,450.006592 
	C697.160889,449.879700 693.517944,449.975830 689.309143,449.975830 
	C689.193176,447.666718 689.016296,445.741791 689.012817,443.816498 
	C688.988037,430.328308 689.095825,416.838806 688.931213,403.352570 
	C688.889465,399.928558 688.484192,396.363464 687.434875,393.126068 
	C684.827087,385.080322 674.088989,382.104675 665.744873,386.826935 
	C660.500610,389.794830 657.550171,393.556274 657.824280,400.323669 
	C658.403442,414.621063 658.000549,428.958282 658.000488,443.279144 
	C658.000488,445.245117 658.000488,447.211090 658.000488,449.587036 
	C652.950439,449.587036 648.398621,449.587036 643.311462,449.587036 
	C643.206116,447.781311 643.015198,446.016663 643.013550,444.251831 
	C642.993164,422.270966 642.933594,400.289551 643.108826,378.310059 
	C643.125305,376.237823 644.287781,372.724518 645.566589,372.394775 
	C648.894897,371.536499 652.989929,370.895874 654.873108,375.532806 
	C655.490662,377.053284 656.319397,378.487976 657.295532,380.453186 
	C665.564819,370.377563 676.419739,369.923431 687.538940,372.223969 
	C694.636597,373.692444 699.252136,379.097931 701.674805,385.743561 
	C703.113464,389.689880 703.832214,394.095093 703.899902,398.309662 
	C704.151306,413.958649 703.998535,429.614105 703.993896,445.739044 
z"/>
<path fill="#000000" opacity="1.000000" stroke="none" 
	d="
M1633.842041,385.000305 
	C1628.885864,385.000671 1624.407471,385.000671 1619.359009,385.000671 
	C1619.224854,387.113129 1619.021851,388.866852 1619.016968,390.621063 
	C1618.987183,401.445435 1618.971191,412.270020 1619.010620,423.094299 
	C1619.053101,434.788605 1625.214966,439.601440 1636.562256,437.108093 
	C1638.584473,436.663696 1642.430298,436.576843 1642.662354,437.262756 
	C1643.840576,440.744690 1644.216919,444.525543 1644.552490,448.230743 
	C1644.595825,448.708679 1642.802490,449.778198 1641.804199,449.855835 
	C1635.536865,450.343048 1629.233276,451.122864 1622.980591,450.863983 
	C1613.149414,450.456970 1604.109863,440.242554 1604.026855,430.001862 
	C1603.922974,417.179932 1603.999878,404.356476 1603.998779,391.533691 
	C1603.998657,389.581696 1603.998779,387.629700 1603.998779,385.423004 
	C1600.832153,385.131989 1598.254883,384.895142 1595.760498,384.665894 
	C1593.298828,373.665344 1594.239502,372.121094 1604.005737,371.929016 
	C1604.005737,368.181183 1603.684204,364.366180 1604.151489,360.650330 
	C1604.361206,358.982330 1605.807007,356.867035 1607.288696,356.083130 
	C1610.709473,354.273499 1614.494751,353.153290 1618.944580,351.440643 
	C1618.944580,358.693909 1618.944580,364.947815 1618.944580,371.999939 
	C1624.073364,371.999939 1628.663208,371.984131 1633.252808,372.003723 
	C1639.905640,372.032104 1639.993042,372.129150 1639.999878,378.699280 
	C1640.001709,380.508118 1640.000000,382.316956 1640.000000,384.659821 
	C1637.843018,384.788971 1636.081421,384.894470 1633.842041,385.000305 
z"/>
<path fill="#000000" opacity="1.000000" stroke="none" 
	d="
M1345.000000,370.000000 
	C1345.000000,360.560791 1345.000000,351.621613 1345.000000,342.347900 
	C1350.182983,342.347900 1354.733643,342.347900 1359.999756,342.347900 
	C1359.999756,344.543365 1359.999756,346.481262 1359.999756,348.419159 
	C1359.999878,373.047394 1359.997925,397.675659 1360.000854,422.303894 
	C1360.002075,432.376678 1362.628174,435.599091 1372.668457,437.533936 
	C1372.668457,441.711700 1372.668457,445.955933 1372.668457,450.153564 
	C1358.117310,453.938232 1345.020752,444.043732 1345.005371,429.408112 
	C1344.984741,409.772095 1345.000000,390.136047 1345.000000,370.000000 
z"/>
<path fill="#000000" opacity="1.000000" stroke="none" 
	d="
M606.116821,347.512543 
	C608.374146,346.371613 610.530640,345.363647 612.777893,345.082764 
	C615.536804,344.737915 618.371643,345.000519 621.584473,345.000519 
	C621.584473,380.045532 621.584473,414.597260 621.584473,449.917236 
	C617.278015,449.917236 613.009277,450.097107 608.777283,449.781891 
	C607.804199,449.709442 606.797241,448.033936 606.116821,446.908203 
	C605.743591,446.290771 606.004333,445.280945 606.004761,444.448059 
	C606.020020,412.288025 606.038391,380.127960 606.116821,347.512543 
z"/>
<path fill="#000000" opacity="1.000000" stroke="none" 
	d="
M1866.302246,372.972198 
	C1873.613281,372.367950 1880.547852,371.871338 1889.025391,371.264252 
	C1886.358887,377.531586 1884.394409,382.148804 1882.339355,386.978821 
	C1879.597778,386.289154 1877.113525,385.428467 1874.558350,385.062103 
	C1863.211792,383.435150 1856.434937,394.173279 1856.112671,403.870667 
	C1855.676392,416.998352 1856.001587,430.151398 1856.000244,443.293549 
	C1856.000122,445.256775 1856.000366,447.220001 1856.000366,449.915253 
	C1851.252930,449.915253 1846.954224,450.258118 1842.780273,449.687439 
	C1841.659546,449.534241 1840.153442,446.612122 1840.125488,444.939240 
	C1839.905151,431.800751 1840.000122,418.656921 1839.999878,405.514771 
	C1839.999756,396.198822 1840.112671,386.880951 1839.953369,377.567780 
	C1839.883789,373.504059 1841.447998,371.631714 1845.536987,371.997894 
	C1846.031860,372.042206 1846.534546,372.002075 1847.033569,371.999908 
	C1855.313721,371.964020 1855.313721,371.963989 1856.507080,380.174988 
	C1859.733032,377.744781 1862.829346,375.412323 1866.302246,372.972198 
z"/>
<path fill="#000000" opacity="1.000000" stroke="none" 
	d="
M797.625732,385.314819 
	C796.347900,369.178284 796.503967,372.305267 808.898376,372.012970 
	C812.222473,371.934570 815.550415,372.016571 818.876587,372.026886 
	C821.731079,372.035767 823.026306,373.345306 823.018860,376.320587 
	C822.961121,399.437775 822.955566,422.555267 823.024475,445.672394 
	C823.034180,448.931732 821.669861,450.059052 818.526001,450.025177 
	C804.985779,449.879120 807.107422,451.265411 807.025513,439.253845 
	C806.920044,423.787567 806.999573,408.320007 806.999451,392.852997 
	C806.999390,390.877380 806.999451,388.901733 806.999451,386.450378 
	C803.742065,386.162415 800.838135,385.905701 797.625732,385.314819 
z"/>
<path fill="#DE847D" opacity="1.000000" stroke="none" 
	d="
M459.965729,534.925598 
	C462.461090,534.848511 464.956482,534.703918 467.451843,534.703857 
	C881.171021,534.693970 1294.890137,534.694214 1708.609375,534.698303 
	C1710.774780,534.698364 1712.940063,534.758667 1715.571411,535.086182 
	C1716.037354,535.381470 1716.057617,535.836914 1716.057617,535.836914 
	C1714.227295,535.891296 1712.396851,535.993225 1710.566528,535.993225 
	C1295.502441,536.000122 880.438354,536.000000 465.374237,535.997925 
	C463.874817,535.997864 462.375397,535.966797 460.419617,535.665894 
	C459.963226,535.381470 459.965729,534.925598 459.965729,534.925598 
z"/>
<path fill="#020000" opacity="1.000000" stroke="none" 
	d="
M817.432861,362.543213 
	C811.665649,363.278931 808.235718,360.568817 806.459961,355.799133 
	C804.645508,350.925507 808.076172,347.984619 811.279968,345.393066 
	C814.644287,342.671753 818.184509,343.901459 821.371277,346.068512 
	C824.602661,348.265961 825.547913,351.582947 824.909973,355.232208 
	C824.225525,359.148010 821.910034,361.737793 817.432861,362.543213 
z"/>
<path fill="#DC6965" opacity="1.000000" stroke="none" 
	d="
M1716.517334,535.892822 
	C1716.057617,535.836914 1716.037354,535.381470 1716.035889,535.153564 
	C1716.862427,534.862000 1717.690308,534.742554 1718.518311,534.742737 
	C1781.358398,534.755615 1844.198486,534.777893 1907.501709,534.859802 
	C1907.964722,534.920166 1907.958130,535.378845 1907.945679,535.607788 
	C1896.104614,535.891174 1884.276001,535.991699 1872.447388,535.992004 
	C1820.623901,535.993469 1768.800537,535.965820 1716.517334,535.892822 
z"/>
<path fill="#DC6965" opacity="1.000000" stroke="none" 
	d="
M459.502655,534.863892 
	C459.965729,534.925598 459.963226,535.381470 459.952576,535.609192 
	C428.272888,535.873291 396.603821,535.909668 364.469177,535.669922 
	C364.003601,535.393860 364.020569,534.954590 364.020569,534.954590 
	C395.693573,534.903809 427.366577,534.853027 459.502655,534.863892 
z"/>
<path fill="#DE837C" opacity="1.000000" stroke="none" 
	d="
M363.556030,534.875610 
	C364.020569,534.954590 364.003601,535.393860 364.003723,535.613647 
	C353.777344,535.889954 343.550812,535.992554 333.324402,535.982239 
	C328.673920,535.977600 324.023651,535.749634 319.118896,535.323914 
	C322.944031,534.829346 327.023895,534.463623 331.103027,534.471741 
	C341.766022,534.492859 352.428711,534.677246 363.556030,534.875610 
z"/>
<path fill="#681114" opacity="1.000000" stroke="none" 
	d="
M455.660278,559.593994 
	C438.562714,559.766602 421.125183,559.699768 403.343811,559.399719 
	C420.440094,559.229126 437.880188,559.291809 455.660278,559.593994 
z"/>
<path fill="#47704C" opacity="1.000000" stroke="none" 
	d="
M175.000610,438.998596 
	C191.922089,409.910889 208.738953,381.177338 226.412399,350.980194 
	C247.178192,392.872467 267.321960,433.509827 287.731628,474.683685 
	C243.024170,474.683685 199.026398,474.683685 153.981689,474.683685 
	C161.183746,462.517120 168.039871,450.934937 175.000610,438.998596 
z"/>
<path fill="#47704C" opacity="1.000000" stroke="none" 
	d="
M1963.270752,320.368317 
	C1973.081543,313.027557 1983.835205,314.872009 1990.413330,322.518494 
	C1997.377808,330.614014 1997.055176,342.012268 1988.331909,349.851593 
	C1988.027344,349.993256 1988.061768,350.056885 1988.015381,349.693268 
	C1985.873047,345.470490 1983.776978,341.611359 1981.597290,337.597961 
	C1985.699097,334.874176 1987.014160,330.906860 1985.602173,326.437347 
	C1984.178955,321.932648 1979.871338,321.393616 1975.965820,321.083160 
	C1972.027466,320.770111 1968.041626,321.054321 1963.875244,320.899658 
	C1963.539429,320.604431 1963.405151,320.486389 1963.270752,320.368317 
z"/>
<path fill="#47704C" opacity="1.000000" stroke="none" 
	d="
M1964.041626,349.931732 
	C1957.414795,346.923401 1954.104004,335.973541 1957.716553,327.893799 
	C1958.878906,325.294708 1961.061523,323.151855 1963.024048,320.584290 
	C1963.405151,320.486389 1963.539429,320.604431 1963.848877,321.362701 
	C1964.010132,331.341095 1963.996460,340.679260 1963.997559,349.996094 
	C1964.012451,349.974731 1964.041626,349.931732 1964.041626,349.931732 
z"/>
<path fill="#47704C" opacity="1.000000" stroke="none" 
	d="
M1988.010498,349.961304 
	C1979.263428,356.455414 1972.885498,356.641022 1964.137451,350.276245 
	C1964.041626,349.931732 1964.012451,349.974731 1964.431152,349.989960 
	C1966.438232,349.885803 1968.026489,349.766418 1969.755127,349.636536 
	C1969.938232,345.871185 1970.097534,342.595367 1970.258423,339.287170 
	C1974.607300,338.354431 1976.731567,341.344055 1977.785156,343.985565 
	C1979.786377,349.002258 1982.989624,350.814758 1988.061768,350.056885 
	C1988.061768,350.056885 1988.027344,349.993256 1988.010498,349.961304 
z"/>
<path fill="#47704C" opacity="1.000000" stroke="none" 
	d="
M1214.553589,415.839874 
	C1207.375977,412.077667 1205.310303,405.857483 1205.723755,398.785767 
	C1206.131470,391.811249 1209.434082,386.673950 1216.679565,384.666260 
	C1222.701538,382.997620 1229.720947,386.002747 1232.325317,391.832184 
	C1234.960449,397.730316 1234.767578,403.758057 1232.093384,409.545380 
	C1229.125122,415.968445 1222.865845,418.158936 1214.553589,415.839874 
z"/>
<path fill="#47704C" opacity="1.000000" stroke="none" 
	d="
M743.476929,388.271362 
	C749.365967,384.976105 755.222961,383.888641 761.412231,385.778320 
	C766.520203,387.337830 768.984253,390.695526 768.993408,395.862610 
	C769.010803,405.663239 769.000977,415.463959 768.998779,425.264618 
	C768.996826,434.183350 762.160278,439.612610 753.388489,437.665771 
	C735.875916,433.778961 727.387451,416.711639 735.093201,400.144684 
	C737.061157,395.913574 740.426697,392.332458 743.476929,388.271362 
z"/>
<path fill="#47704C" opacity="1.000000" stroke="none" 
	d="
M1074.538086,415.985474 
	C1066.792358,415.992249 1059.501221,415.992249 1050.920532,415.992249 
	C1055.764771,402.346893 1060.375000,389.360901 1065.451172,375.062256 
	C1069.685669,388.298828 1073.466675,400.276733 1077.377197,412.212189 
	C1078.195557,414.709900 1077.947388,416.085358 1074.538086,415.985474 
z"/>
<path fill="#47704C" opacity="1.000000" stroke="none" 
	d="
M1303.980469,401.998596 
	C1295.009033,401.998596 1286.534302,401.998596 1278.031250,401.998596 
	C1278.791016,392.451660 1285.873901,385.434204 1294.773193,385.010712 
	C1308.133545,384.374969 1314.728760,389.237030 1316.778931,401.998596 
	C1312.608032,401.998596 1308.542480,401.998596 1303.980469,401.998596 
z"/>
<path fill="#47704C" opacity="1.000000" stroke="none" 
	d="
M1534.250977,396.461578 
	C1539.196777,385.450592 1548.887451,383.862396 1558.064819,385.260529 
	C1565.803223,386.439484 1571.519043,393.652863 1571.616089,401.609009 
	C1558.927979,401.609009 1546.240356,401.609009 1532.902100,401.609009 
	C1533.339478,399.821564 1533.708130,398.314941 1534.250977,396.461578 
z"/>
<path fill="#47704C" opacity="1.000000" stroke="none" 
	d="
M882.985962,416.422729 
	C882.994446,419.037964 882.721313,421.240753 883.048767,423.350311 
	C884.127686,430.302032 879.726868,433.522705 874.595764,436.375549 
	C868.583435,439.718384 862.549744,439.867920 856.836731,435.978210 
	C851.621582,432.427460 851.883972,423.148865 857.574524,418.074402 
	C863.906189,412.428314 871.462097,410.019653 879.904724,412.269501 
	C881.168396,412.606262 881.966187,414.691284 882.985962,416.422729 
z"/>
<path fill="#47704C" opacity="1.000000" stroke="none" 
	d="
M1774.760742,403.812683 
	C1775.354248,393.781464 1780.892212,386.883820 1790.082397,384.456421 
	C1796.020874,382.887878 1804.529785,386.276245 1807.198242,391.627106 
	C1813.212769,403.687683 1813.861938,415.971069 1807.877197,428.258850 
	C1804.239014,435.728729 1798.278564,438.757599 1789.470337,437.977753 
	C1783.480957,437.447510 1777.181641,432.387238 1775.908569,425.301758 
	C1774.673218,418.426514 1774.998413,411.270844 1774.760742,403.812683 
z"/>
<path fill="#000000" opacity="1.000000" stroke="none" 
	d="
M1988.015381,349.693268 
	C1982.989624,350.814758 1979.786377,349.002258 1977.785156,343.985565 
	C1976.731567,341.344055 1974.607300,338.354431 1970.258423,339.287170 
	C1970.097534,342.595367 1969.938232,345.871185 1969.755127,349.636536 
	C1968.026489,349.766418 1966.438232,349.885803 1964.416260,350.011322 
	C1963.996460,340.679260 1964.010132,331.341095 1964.050293,321.539856 
	C1968.041626,321.054321 1972.027466,320.770111 1975.965820,321.083160 
	C1979.871338,321.393616 1984.178955,321.932648 1985.602173,326.437347 
	C1987.014160,330.906860 1985.699097,334.874176 1981.597290,337.597961 
	C1983.776978,341.611359 1985.873047,345.470490 1988.015381,349.693268 
M1975.857910,332.900055 
	C1977.231079,332.144012 1978.604248,331.387970 1980.169556,330.526154 
	C1977.589111,325.601501 1973.935303,327.062256 1970.337769,327.455963 
	C1970.221802,328.522919 1970.056030,329.330933 1970.068237,330.136261 
	C1970.080078,330.925598 1970.273193,331.712250 1970.379517,332.450897 
	C1971.125854,332.661469 1971.585815,332.874359 1972.058472,332.907318 
	C1973.052856,332.976624 1974.053833,332.951599 1975.857910,332.900055 
z"/>
<path fill="#47704C" opacity="1.000000" stroke="none" 
	d="
M1975.455078,332.932678 
	C1974.053833,332.951599 1973.052856,332.976624 1972.058472,332.907318 
	C1971.585815,332.874359 1971.125854,332.661469 1970.379517,332.450897 
	C1970.273193,331.712250 1970.080078,330.925598 1970.068237,330.136261 
	C1970.056030,329.330933 1970.221802,328.522919 1970.337769,327.455963 
	C1973.935303,327.062256 1977.589111,325.601501 1980.169556,330.526154 
	C1978.604248,331.387970 1977.231079,332.144012 1975.455078,332.932678 
z"/>
</svg>