<?xml version="1.0" encoding="utf-8"?>
<!-- Generator: Adobe Illustrator 26.0.3, SVG Export Plug-In . SVG Version: 6.00 Build 0)  -->
<svg version="1.0" id="katman_1" xmlns="http://www.w3.org/2000/svg" xmlns:xlink="http://www.w3.org/1999/xlink" x="0px" y="0px"
	 viewBox="0 0 600 450" style="enable-background:new 0 0 600 450;" xml:space="preserve">
<style type="text/css">
	.st0{fill-rule:evenodd;clip-rule:evenodd;fill:#010202;}
	.st1{fill-rule:evenodd;clip-rule:evenodd;fill:#E62B35;}
</style>
<g>
	<path class="st0" d="M327.3,200.4c-12.1-2.3-24.3-3.5-32.9-3.5c-30.5,0-41.4,12.7-41.4,34.8v20.1c0,20.1,7.5,33.8,43.6,33.8
		c9.6,0,21.4-0.9,32.9-3.2v-17.9c-9.1,1.7-17.5,2.1-30.8,2.1c-14.3,0-22.3-6.9-22.3-19v-11.6c0-12.8,6.4-20.1,19.1-20.1
		c2.1,0,6.3,0,8.5,0.6v13.1h23.4V200.4z M229.6,229.6c0-23.9-10.9-32.7-30.8-32.7c-7.5,0-14.8,2.1-23.4,6.3l-2.1-4.2h-30.8v19h12.8
		v48.6h-10.6v19h44.6v-19h-10.6V218c4.8-1.7,9.6-2.2,15.1-2.2c13.7,0,12.6,11.9,12.6,20.1v49.6h36.1v-19h-12.8V229.6z M119.1,266.5
		h12.8v19H82.9v-19h12.8v-82.3H85.1v-19h44.6v19h-10.6L119.1,266.5z"/>
	<path class="st1" d="M495.2,205.3c0-8.8-3.2-21.1-18.1-21.1c-15.7,0-22.9,15.1-18.1,31.7h-20.9c-1.6-4.7-2.5-17.9,2.5-28.4
		c5.6-11.6,18.8-22.2,36.2-22.2h-43.3h-36.1l-44.6,66.5v28.5h47.8v-19h-25.5l37.2-57h1.1v101.3h20.2c0-37.5,22-49.6,42.5-58.2
		C487.4,222.7,495.2,216.9,495.2,205.3 M516.4,204.3v62.3h-53.1c0-10.6,9.9-12.4,22.3-19C501.5,239,516.4,228.5,516.4,204.3"/>
</g>
</svg>
