<svg width="360" height="57" viewBox="0 0 360 57" fill="none" xmlns="http://www.w3.org/2000/svg">
<path d="M92.5423 0.803223H81.1973V56.1792H92.5423V0.803223Z" fill="#006734"/>
<path d="M118.292 56.1792L98.0078 0.803223H110.088L124.706 43.0572L139.322 0.803223H150.925L130.718 56.1792H118.292Z" fill="#006734"/>
<path d="M172.21 56.1792V33.8862L152.283 0.803223H164.406L178.083 23.9862L191.759 0.803223H203.481L183.555 33.8862V56.1792H172.21Z" fill="#006734"/>
<path d="M231.033 56.5301C227.331 56.5301 223.834 55.8211 220.638 54.4231C217.45 53.0281 214.649 50.9581 212.308 48.2691C210.106 45.7651 208.408 42.8121 207.256 39.4841C206.099 36.1361 205.512 32.4701 205.512 28.5841C205.512 24.6991 206.099 21.0331 207.256 17.6861C208.407 14.3561 210.107 11.4031 212.304 8.90714C214.649 6.21314 217.45 4.14014 220.638 2.74714C223.833 1.34914 227.33 0.640137 231.033 0.640137C236.528 0.640137 241.266 2.05114 245.116 4.83114C248.73 7.44214 251.453 11.1671 253.22 15.9111L242.924 19.3191C242.138 16.5911 240.78 14.3891 238.88 12.7651C236.722 10.9191 234.056 9.98314 230.955 9.98314C226.683 9.98314 223.164 11.7471 220.5 15.2251C217.897 18.6231 216.577 23.1181 216.577 28.5861C216.577 34.0531 217.897 38.5471 220.5 41.9451C223.164 45.4241 226.683 47.1871 230.955 47.1871C234.056 47.1871 236.722 46.2511 238.88 44.4041C240.78 42.7811 242.138 40.5801 242.924 37.8511L253.22 41.2591C251.452 46.0031 248.731 49.7281 245.116 52.3391C241.267 55.1201 236.528 56.5301 231.033 56.5301Z" fill="#006734"/>
<path d="M298.575 56.4693L294.42 44.9613H270.482L266.327 56.4693H255.278L275.716 1.09229H289.585L309.944 56.4693H298.575ZM273.758 35.9343H291.069L282.367 11.9283L273.758 35.9343Z" fill="#006734"/>
<path d="M315.492 56.4693V1.09229H338.705C345.407 1.09229 350.633 2.65329 354.237 5.72929C357.846 8.80729 359.6 13.0793 359.6 18.7923C359.6 24.5033 357.833 28.7743 354.2 31.8553C350.567 34.9313 345.355 36.4943 338.705 36.4943H326.838V56.4713H315.492V56.4693ZM326.838 27.3033H337.986C341.295 27.3033 343.884 26.5713 345.683 25.1253C347.548 23.6273 348.495 21.4953 348.495 18.7913C348.495 16.0823 347.547 13.9633 345.676 12.4913C343.88 11.0773 341.293 10.3603 337.987 10.3603H326.839V27.3033H326.838Z" fill="#006734"/>
<path d="M26.4887 32.0122C26.4887 32.0122 23.4247 37.2082 14.1957 37.3302C10.2587 37.3822 2.04566 31.0312 0.847656 30.9792C0.847656 30.9792 4.60566 25.2112 9.30566 23.3182C7.88266 20.9162 6.57466 18.9282 7.28866 14.5932C8.00266 10.2582 8.29165 5.3962 8.14765 3.7762C8.14765 3.7762 21.2217 5.2822 26.5317 9.5522C26.5317 9.5522 32.2637 4.0802 40.6207 3.2272C48.9757 2.3732 55.8347 0.554199 55.8347 0.554199C55.8347 0.554199 54.4627 14.6052 52.3487 19.2682C50.2367 23.9322 46.8227 26.5292 46.8227 26.5292C46.8227 26.5292 52.8597 31.6162 55.4827 35.4162C56.8037 37.3332 58.7817 40.5902 60.0807 41.1332C60.0807 41.1332 54.6507 43.0282 50.9827 45.0342C47.3147 47.0402 42.6977 45.9752 42.0357 45.4222C42.0357 45.4222 42.1237 54.1762 39.5977 55.9872C39.5977 55.9872 33.7027 54.8622 27.8677 48.0482C22.0327 41.2342 27.2397 33.2182 27.8297 32.9612C27.8297 32.9612 33.5727 41.3692 34.6737 46.7052C34.6737 46.7052 35.1857 42.7492 29.3787 32.7282C29.3787 32.7282 41.4057 35.0032 50.1407 38.0412C50.1407 38.0412 41.6447 32.6182 29.4327 30.5632C29.4327 30.5632 34.3987 22.7642 44.1807 13.2412C44.1807 13.2412 33.9097 20.9622 28.1497 29.6412C28.1497 29.6412 22.6297 18.1122 17.3797 13.2862C17.3797 13.2862 24.8107 25.3282 26.4237 30.3992C26.4237 30.3992 16.4597 29.0732 9.52866 29.3582C9.52866 29.3602 25.7837 31.8562 26.4887 32.0122Z" fill="#006734"/>
</svg>
