<svg version="1.1" id="Layer_1" xmlns="http://www.w3.org/2000/svg" xmlns:xlink="http://www.w3.org/1999/xlink" x="0px" y="0px"
	 width="100%" viewBox="0 0 368 120" enable-background="new 0 0 368 120" xml:space="preserve">
<path fill="#000000" opacity="1.000000" stroke="none" 
	d="
M288.000000,121.000000 
	C192.000015,121.000000 96.500023,121.000000 1.000026,121.000000 
	C1.000017,81.000015 1.000017,41.000031 1.000009,1.000036 
	C123.666634,1.000024 246.333267,1.000024 368.999939,1.000012 
	C368.999939,40.999966 368.999939,80.999931 368.999969,120.999947 
	C342.166656,121.000000 315.333344,121.000000 288.000000,121.000000 
M113.737282,116.375687 
	C112.114830,110.939812 110.548676,110.143784 105.516106,112.202942 
	C101.263496,113.942955 97.661034,112.949455 94.920280,109.365067 
	C92.163666,105.759933 92.253166,102.014374 95.033829,98.390579 
	C98.404984,93.997253 102.568390,94.866768 107.167328,96.067696 
	C108.802551,96.494698 110.991798,94.800072 112.928131,94.073944 
	C111.932999,92.617920 111.269608,90.547638 109.890388,89.802788 
	C98.589844,83.699776 86.285385,90.437927 85.206902,103.145180 
	C84.461380,111.929260 90.836121,119.211235 99.547783,118.919449 
	C104.417793,118.756340 109.256035,117.645050 114.401192,117.660828 
	C117.798996,119.420570 120.928383,120.531265 123.498840,116.162979 
	C125.318848,113.070000 136.848984,112.771706 138.811356,115.887230 
	C141.273376,119.796021 144.079697,119.505089 148.223602,117.785507 
	C144.262344,108.887650 140.599197,100.235458 136.493744,91.798500 
	C135.680939,90.128128 133.108063,88.238548 131.456192,88.334373 
	C129.548462,88.445061 126.975868,90.233643 126.056839,92.002716 
	C121.790085,100.215942 117.996208,108.674835 113.737282,116.375687 
M363.005951,46.499908 
	C363.002106,33.677483 363.077209,20.853937 362.896057,8.034015 
	C362.872986,6.404520 361.881958,3.769253 360.706390,3.342145 
	C353.469238,0.712725 350.007446,3.342379 350.001770,10.986137 
	C349.995056,20.075291 350.000183,29.164452 350.000183,39.328251 
	C348.318237,37.785740 347.411652,37.130039 346.722321,36.294987 
	C339.637421,27.712152 332.305481,19.312067 325.631470,10.418963 
	C321.467438,4.870348 316.838074,1.455544 309.794525,3.163661 
	C308.372192,3.508580 306.291809,5.433160 306.277679,6.649927 
	C306.053345,25.963835 306.122223,45.281086 306.108032,64.597557 
	C306.105927,67.496735 307.513428,68.884354 310.393799,68.860817 
	C312.058624,68.847214 313.737640,68.751190 315.386200,68.923248 
	C319.857513,69.389900 321.152100,67.267662 321.061462,63.052052 
	C320.853851,53.398075 320.981445,43.736412 321.020752,34.078064 
	C321.027496,32.422623 321.270935,30.768148 321.405029,29.113228 
	C321.845245,29.008209 322.285492,28.903191 322.725708,28.798172 
	C328.250183,35.583637 333.794067,42.353386 339.293091,49.159416 
	C343.885193,54.842987 348.136200,60.843033 353.149689,66.122292 
	C354.822510,67.883812 358.363251,68.137993 361.108856,68.362785 
	C361.589783,68.402161 362.818024,64.892380 362.913696,62.982300 
	C363.171631,57.832844 363.004425,52.662094 363.005951,46.499908 
M278.761017,58.700733 
	C270.791046,41.708130 262.772369,24.738071 254.892227,7.703914 
	C253.314514,4.293435 251.270828,2.319278 247.279465,2.956541 
	C245.818176,3.189856 244.261398,3.174210 242.794403,2.958273 
	C238.118881,2.270060 235.631561,4.316993 233.717484,8.588586 
	C227.810745,21.770443 221.462189,34.753784 215.343384,47.841415 
	C212.742081,53.405388 210.261276,59.026279 207.773346,64.642410 
	C206.593063,67.306770 207.429474,68.583633 210.447830,68.904472 
	C220.320282,69.953880 221.815598,69.405540 225.740540,60.667053 
	C227.080582,57.683613 228.837280,56.779705 231.822159,56.817375 
	C239.480759,56.914024 247.168076,57.229565 254.792465,56.707020 
	C260.287140,56.330433 263.032898,58.607941 264.814636,63.374840 
	C265.525757,65.277382 266.895111,68.153000 268.289185,68.355774 
	C272.717865,68.999947 277.299255,68.594124 282.840210,68.594124 
	C281.281891,64.803368 280.169189,62.096622 278.761017,58.700733 
M152.655792,30.507206 
	C152.659927,41.170624 152.618423,51.834332 152.685638,62.497353 
	C152.724792,68.708626 153.077530,68.690216 160.342102,68.982788 
	C165.134933,69.175804 167.224335,67.959000 167.103668,62.646786 
	C166.782181,48.491833 167.099182,34.323517 166.943665,20.162916 
	C166.901230,16.299162 168.164398,14.723562 172.114624,14.949507 
	C176.265106,15.186906 180.441742,14.974507 184.606873,14.946551 
	C189.525803,14.913538 188.821198,11.298295 188.933273,8.173588 
	C189.039200,5.220054 188.662430,2.960860 184.761642,2.984709 
	C168.267410,3.085555 151.771591,2.964795 135.278458,3.132557 
	C133.899384,3.146585 131.656174,4.441158 131.310425,5.590725 
	C129.303253,12.264227 131.408905,14.933936 138.199402,14.993015 
	C152.658630,15.118814 152.658630,15.118815 152.655792,30.507206 
M28.000158,55.484100 
	C28.012850,58.649296 27.938820,61.818539 28.086111,64.977455 
	C28.136456,66.057167 28.651758,67.990257 29.108427,68.037201 
	C32.690033,68.405373 36.395645,68.877716 39.862640,68.235756 
	C40.876358,68.048042 41.791172,64.376747 41.818436,62.289967 
	C41.994713,48.797970 41.897274,35.302574 41.921970,21.808348 
	C41.934368,15.034820 41.965206,15.036363 48.932400,14.999741 
	C52.597172,14.980476 56.263988,15.024426 59.926144,14.914855 
	C64.619171,14.774441 63.687527,11.177051 63.799385,8.312987 
	C63.910801,5.460299 63.667198,2.974545 59.713528,2.994295 
	C43.387775,3.075845 27.061266,3.067397 10.735315,3.010988 
	C6.072340,2.994876 7.028145,6.347498 7.029012,8.989594 
	C7.029879,11.631090 6.068665,15.063871 10.729406,14.973133 
	C14.059637,14.908298 17.392633,14.987260 20.724407,14.999621 
	C27.977739,15.026531 27.988972,15.025883 27.996586,22.503584 
	C28.007444,33.165710 27.999863,43.827854 28.000158,55.484100 
M102.989998,24.500195 
	C102.989822,20.011509 102.994316,15.522816 102.988457,11.034136 
	C102.977829,2.884866 102.967323,3.148147 94.770805,2.901049 
	C90.033020,2.758221 88.881523,4.595850 88.929420,8.989774 
	C89.117905,26.277485 89.000282,43.568485 89.005196,60.858265 
	C89.007507,69.011902 89.024963,68.744301 97.231056,68.999405 
	C101.987686,69.147278 103.139702,67.288147 103.062843,62.904503 
	C102.844299,50.439770 102.988541,37.968678 102.989998,24.500195 
M228.635147,118.982925 
	C229.883636,118.666916 231.983597,118.670708 232.241943,117.982826 
	C233.876816,113.629860 237.358536,113.915031 240.887482,113.999512 
	C244.458038,114.084984 248.062531,113.333687 250.412338,117.590591 
	C251.048492,118.743057 254.539780,118.409485 256.729370,118.478218 
	C256.953522,118.485252 257.752716,116.338379 257.416107,115.573357 
	C253.613708,106.931625 249.835297,98.267654 245.612747,89.828651 
	C244.074112,86.753571 237.954636,87.273552 236.483383,90.444313 
	C232.651230,98.703156 229.089935,107.087257 225.357254,115.392937 
	C224.123337,118.138527 225.194214,119.060852 228.635147,118.982925 
M171.127655,109.969040 
	C177.126343,106.777534 179.274048,102.287888 177.768112,96.087578 
	C176.626907,91.388954 171.841965,88.087234 166.016754,88.038185 
	C162.534073,88.008865 159.050232,88.099716 155.567886,88.057182 
	C152.696823,88.022110 151.223251,89.350151 151.220169,92.228180 
	C151.211868,100.023041 151.062302,107.824623 151.392685,115.605530 
	C151.442154,116.770714 153.750717,118.679573 155.053848,118.713310 
	C156.330048,118.746346 158.769653,116.820190 158.766083,115.760483 
	C158.751663,111.490921 161.009827,110.858452 164.467667,110.929390 
	C166.418579,110.969406 168.381393,110.429100 171.127655,109.969040 
M220.676132,88.335007 
	C214.364532,88.236786 208.052643,88.058441 201.741501,88.082199 
	C199.416077,88.090950 196.353226,87.387779 196.298401,91.353325 
	C196.247040,95.069328 198.915161,95.141571 201.482803,94.976418 
	C205.044510,94.747330 206.131500,96.436615 206.020126,99.751968 
	C205.863892,104.402222 206.007797,109.062157 205.997726,113.717896 
	C205.991745,116.492874 205.862625,119.136253 209.982895,118.984085 
	C213.956253,118.837349 213.919266,116.212090 213.931183,113.451767 
	C213.951279,108.796066 214.054230,104.137924 213.938004,99.485420 
	C213.860474,96.382141 214.982193,95.077316 218.247070,94.929291 
	C223.207031,94.704407 223.690277,93.492455 220.676132,88.335007 
M272.809540,112.322723 
	C271.884064,110.634338 270.292450,108.996483 270.159821,107.247963 
	C269.783722,102.289719 269.975586,97.286079 270.001709,92.300621 
	C270.014679,89.824120 269.288422,87.569916 266.469574,88.279823 
	C264.906189,88.673553 262.689484,90.710915 262.620636,92.099312 
	C262.234436,99.890381 262.299988,107.712593 262.520020,115.515465 
	C262.552734,116.675957 264.167877,118.718758 265.139221,118.773026 
	C270.770844,119.087685 276.434631,119.058365 282.072449,118.806702 
	C283.043488,118.763367 284.787689,116.977081 284.680328,116.203331 
	C284.509247,114.970596 283.238220,113.149994 282.156799,112.929558 
	C279.427551,112.373199 276.544708,112.570404 272.809540,112.322723 
M190.912399,93.816887 
	C190.947006,90.857826 190.986969,87.998894 186.708405,88.085724 
	C182.541702,88.170273 183.058044,91.141502 183.041809,93.742348 
	C182.998215,100.721024 183.083771,107.700630 183.021027,114.678993 
	C182.996033,117.457237 183.798019,119.008026 186.969070,119.015305 
	C190.146408,119.022591 190.944946,117.470222 190.918518,114.691811 
	C190.855316,108.045830 190.910507,101.398720 190.912399,93.816887 
z"/>
<path fill="#002169" opacity="1.000000" stroke="none" 
	d="
M363.005951,46.999851 
	C363.004425,52.662094 363.171631,57.832844 362.913696,62.982300 
	C362.818024,64.892380 361.589783,68.402161 361.108856,68.362785 
	C358.363251,68.137993 354.822510,67.883812 353.149689,66.122292 
	C348.136200,60.843033 343.885193,54.842987 339.293091,49.159416 
	C333.794067,42.353386 328.250183,35.583637 322.725708,28.798172 
	C322.285492,28.903191 321.845245,29.008209 321.405029,29.113228 
	C321.270935,30.768148 321.027496,32.422623 321.020752,34.078064 
	C320.981445,43.736412 320.853851,53.398075 321.061462,63.052052 
	C321.152100,67.267662 319.857513,69.389900 315.386200,68.923248 
	C313.737640,68.751190 312.058624,68.847214 310.393799,68.860817 
	C307.513428,68.884354 306.105927,67.496735 306.108032,64.597557 
	C306.122223,45.281086 306.053345,25.963835 306.277679,6.649927 
	C306.291809,5.433160 308.372192,3.508580 309.794525,3.163661 
	C316.838074,1.455544 321.467438,4.870348 325.631470,10.418963 
	C332.305481,19.312067 339.637421,27.712152 346.722321,36.294987 
	C347.411652,37.130039 348.318237,37.785740 350.000183,39.328251 
	C350.000183,29.164452 349.995056,20.075291 350.001770,10.986137 
	C350.007446,3.342379 353.469238,0.712725 360.706390,3.342145 
	C361.881958,3.769253 362.872986,6.404520 362.896057,8.034015 
	C363.077209,20.853937 363.002106,33.677483 363.005951,46.999851 
z"/>
<path fill="#002168" opacity="1.000000" stroke="none" 
	d="
M278.908752,59.045303 
	C280.169189,62.096622 281.281891,64.803368 282.840210,68.594124 
	C277.299255,68.594124 272.717865,68.999947 268.289185,68.355774 
	C266.895111,68.153000 265.525757,65.277382 264.814636,63.374840 
	C263.032898,58.607941 260.287140,56.330433 254.792465,56.707020 
	C247.168076,57.229565 239.480759,56.914024 231.822159,56.817375 
	C228.837280,56.779705 227.080582,57.683613 225.740540,60.667053 
	C221.815598,69.405540 220.320282,69.953880 210.447830,68.904472 
	C207.429474,68.583633 206.593063,67.306770 207.773346,64.642410 
	C210.261276,59.026279 212.742081,53.405388 215.343384,47.841415 
	C221.462189,34.753784 227.810745,21.770443 233.717484,8.588586 
	C235.631561,4.316993 238.118881,2.270060 242.794403,2.958273 
	C244.261398,3.174210 245.818176,3.189856 247.279465,2.956541 
	C251.270828,2.319278 253.314514,4.293435 254.892227,7.703914 
	C262.772369,24.738071 270.791046,41.708130 278.908752,59.045303 
M235.927032,42.712078 
	C241.835648,42.712078 247.744247,42.712078 255.041672,42.712078 
	C251.465454,34.667091 248.302307,27.551336 245.139160,20.435581 
	C244.597122,20.404978 244.055084,20.374374 243.513031,20.343773 
	C240.785339,27.665657 238.057648,34.987545 235.927032,42.712078 
z"/>
<path fill="#002269" opacity="1.000000" stroke="none" 
	d="
M152.655426,30.009233 
	C152.658630,15.118815 152.658630,15.118814 138.199402,14.993015 
	C131.408905,14.933936 129.303253,12.264227 131.310425,5.590725 
	C131.656174,4.441158 133.899384,3.146585 135.278458,3.132557 
	C151.771591,2.964795 168.267410,3.085555 184.761642,2.984709 
	C188.662430,2.960860 189.039200,5.220054 188.933273,8.173588 
	C188.821198,11.298295 189.525803,14.913538 184.606873,14.946551 
	C180.441742,14.974507 176.265106,15.186906 172.114624,14.949507 
	C168.164398,14.723562 166.901230,16.299162 166.943665,20.162916 
	C167.099182,34.323517 166.782181,48.491833 167.103668,62.646786 
	C167.224335,67.959000 165.134933,69.175804 160.342102,68.982788 
	C153.077530,68.690216 152.724792,68.708626 152.685638,62.497353 
	C152.618423,51.834332 152.659927,41.170624 152.655426,30.009233 
z"/>
<path fill="#002269" opacity="1.000000" stroke="none" 
	d="
M28.000156,54.987045 
	C27.999863,43.827854 28.007444,33.165710 27.996586,22.503584 
	C27.988972,15.025883 27.977739,15.026531 20.724407,14.999621 
	C17.392633,14.987260 14.059637,14.908298 10.729406,14.973133 
	C6.068665,15.063871 7.029879,11.631090 7.029012,8.989594 
	C7.028145,6.347498 6.072340,2.994876 10.735315,3.010988 
	C27.061266,3.067397 43.387775,3.075845 59.713528,2.994295 
	C63.667198,2.974545 63.910801,5.460299 63.799385,8.312987 
	C63.687527,11.177051 64.619171,14.774441 59.926144,14.914855 
	C56.263988,15.024426 52.597172,14.980476 48.932400,14.999741 
	C41.965206,15.036363 41.934368,15.034820 41.921970,21.808348 
	C41.897274,35.302574 41.994713,48.797970 41.818436,62.289967 
	C41.791172,64.376747 40.876358,68.048042 39.862640,68.235756 
	C36.395645,68.877716 32.690033,68.405373 29.108427,68.037201 
	C28.651758,67.990257 28.136456,66.057167 28.086111,64.977455 
	C27.938820,61.818539 28.012850,58.649296 28.000156,54.987045 
z"/>
<path fill="#002269" opacity="1.000000" stroke="none" 
	d="
M102.989990,25.000141 
	C102.988541,37.968678 102.844299,50.439770 103.062843,62.904503 
	C103.139702,67.288147 101.987686,69.147278 97.231056,68.999405 
	C89.024963,68.744301 89.007507,69.011902 89.005196,60.858265 
	C89.000282,43.568485 89.117905,26.277485 88.929420,8.989774 
	C88.881523,4.595850 90.033020,2.758221 94.770805,2.901049 
	C102.967323,3.148147 102.977829,2.884866 102.988457,11.034136 
	C102.994316,15.522816 102.989822,20.011509 102.989990,25.000141 
z"/>
<path fill="#002068" opacity="1.000000" stroke="none" 
	d="
M228.247192,118.979691 
	C225.194214,119.060852 224.123337,118.138527 225.357254,115.392937 
	C229.089935,107.087257 232.651230,98.703156 236.483383,90.444313 
	C237.954636,87.273552 244.074112,86.753571 245.612747,89.828651 
	C249.835297,98.267654 253.613708,106.931625 257.416107,115.573357 
	C257.752716,116.338379 256.953522,118.485252 256.729370,118.478218 
	C254.539780,118.409485 251.048492,118.743057 250.412338,117.590591 
	C248.062531,113.333687 244.458038,114.084984 240.887482,113.999512 
	C237.358536,113.915031 233.876816,113.629860 232.241943,117.982826 
	C231.983597,118.670708 229.883636,118.666916 228.247192,118.979691 
M242.711334,101.379654 
	C239.887344,100.250534 239.887344,100.250534 238.725708,106.543243 
	C240.616165,106.543243 242.437927,106.543243 244.816696,106.543243 
	C244.053146,104.637505 243.517212,103.299881 242.711334,101.379654 
z"/>
<path fill="#002066" opacity="1.000000" stroke="none" 
	d="
M170.733246,110.059631 
	C168.381393,110.429100 166.418579,110.969406 164.467667,110.929390 
	C161.009827,110.858452 158.751663,111.490921 158.766083,115.760483 
	C158.769653,116.820190 156.330048,118.746346 155.053848,118.713310 
	C153.750717,118.679573 151.442154,116.770714 151.392685,115.605530 
	C151.062302,107.824623 151.211868,100.023041 151.220169,92.228180 
	C151.223251,89.350151 152.696823,88.022110 155.567886,88.057182 
	C159.050232,88.099716 162.534073,88.008865 166.016754,88.038185 
	C171.841965,88.087234 176.626907,91.388954 177.768112,96.087578 
	C179.274048,102.287888 177.126343,106.777534 170.733246,110.059631 
M160.181702,96.399994 
	C160.039352,98.548172 159.029236,101.938705 159.942032,102.576286 
	C161.647079,103.767258 164.606873,103.937073 166.777649,103.417206 
	C168.257721,103.062759 169.284317,100.814751 170.513672,99.413406 
	C168.974899,98.233383 167.586288,96.661125 165.850204,95.996490 
	C164.441986,95.457390 162.616364,96.008583 160.181702,96.399994 
z"/>
<path fill="#002067" opacity="1.000000" stroke="none" 
	d="
M114.033043,117.045784 
	C117.996208,108.674835 121.790085,100.215942 126.056839,92.002716 
	C126.975868,90.233643 129.548462,88.445061 131.456192,88.334373 
	C133.108063,88.238548 135.680939,90.128128 136.493744,91.798500 
	C140.599197,100.235458 144.262344,108.887650 148.223602,117.785507 
	C144.079697,119.505089 141.273376,119.796021 138.811356,115.887230 
	C136.848984,112.771706 125.318848,113.070000 123.498840,116.162979 
	C120.928383,120.531265 117.798996,119.420570 114.233139,117.329559 
	C114.065086,116.998299 114.033043,117.045784 114.033043,117.045784 
M130.065903,106.884232 
	C131.464676,106.800354 132.863449,106.716484 135.011993,106.587646 
	C133.597000,103.845665 132.562485,101.841003 131.527969,99.836334 
	C131.018234,99.900200 130.508499,99.964073 129.998764,100.027939 
	C129.795135,102.251701 129.591522,104.475471 130.065903,106.884232 
z"/>
<path fill="#001F67" opacity="1.000000" stroke="none" 
	d="
M114.086838,116.979660 
	C109.256035,117.645050 104.417793,118.756340 99.547783,118.919449 
	C90.836121,119.211235 84.461380,111.929260 85.206902,103.145180 
	C86.285385,90.437927 98.589844,83.699776 109.890388,89.802788 
	C111.269608,90.547638 111.932999,92.617920 112.928131,94.073944 
	C110.991798,94.800072 108.802551,96.494698 107.167328,96.067696 
	C102.568390,94.866768 98.404984,93.997253 95.033829,98.390579 
	C92.253166,102.014374 92.163666,105.759933 94.920280,109.365067 
	C97.661034,112.949455 101.263496,113.942955 105.516106,112.202942 
	C110.548676,110.143784 112.114830,110.939812 113.885162,116.710739 
	C114.033043,117.045784 114.065086,116.998299 114.086838,116.979660 
z"/>
<path fill="#001F68" opacity="1.000000" stroke="none" 
	d="
M221.057587,88.509392 
	C223.690277,93.492455 223.207031,94.704407 218.247070,94.929291 
	C214.982193,95.077316 213.860474,96.382141 213.938004,99.485420 
	C214.054230,104.137924 213.951279,108.796066 213.931183,113.451767 
	C213.919266,116.212090 213.956253,118.837349 209.982895,118.984085 
	C205.862625,119.136253 205.991745,116.492874 205.997726,113.717896 
	C206.007797,109.062157 205.863892,104.402222 206.020126,99.751968 
	C206.131500,96.436615 205.044510,94.747330 201.482803,94.976418 
	C198.915161,95.141571 196.247040,95.069328 196.298401,91.353325 
	C196.353226,87.387779 199.416077,88.090950 201.741501,88.082199 
	C208.052643,88.058441 214.364532,88.236786 221.057587,88.509392 
z"/>
<path fill="#001F65" opacity="1.000000" stroke="none" 
	d="
M273.266479,112.394188 
	C276.544708,112.570404 279.427551,112.373199 282.156799,112.929558 
	C283.238220,113.149994 284.509247,114.970596 284.680328,116.203331 
	C284.787689,116.977081 283.043488,118.763367 282.072449,118.806702 
	C276.434631,119.058365 270.770844,119.087685 265.139221,118.773026 
	C264.167877,118.718758 262.552734,116.675957 262.520020,115.515465 
	C262.299988,107.712593 262.234436,99.890381 262.620636,92.099312 
	C262.689484,90.710915 264.906189,88.673553 266.469574,88.279823 
	C269.288422,87.569916 270.014679,89.824120 270.001709,92.300621 
	C269.975586,97.286079 269.783722,102.289719 270.159821,107.247963 
	C270.292450,108.996483 271.884064,110.634338 273.266479,112.394188 
z"/>
<path fill="#002066" opacity="1.000000" stroke="none" 
	d="
M190.915131,94.284477 
	C190.910507,101.398720 190.855316,108.045830 190.918518,114.691811 
	C190.944946,117.470222 190.146408,119.022591 186.969070,119.015305 
	C183.798019,119.008026 182.996033,117.457237 183.021027,114.678993 
	C183.083771,107.700630 182.998215,100.721024 183.041809,93.742348 
	C183.058044,91.141502 182.541702,88.170273 186.708405,88.085724 
	C190.986969,87.998894 190.947006,90.857826 190.915131,94.284477 
z"/>
<path fill="#000000" opacity="1.000000" stroke="none" 
	d="
M235.628494,42.510754 
	C238.057648,34.987545 240.785339,27.665657 243.513031,20.343773 
	C244.055084,20.374374 244.597122,20.404978 245.139160,20.435581 
	C248.302307,27.551336 251.465454,34.667091 255.041672,42.712078 
	C247.744247,42.712078 241.835648,42.712078 235.628494,42.510754 
z"/>
<path fill="#000000" opacity="1.000000" stroke="none" 
	d="
M242.846313,101.670959 
	C243.517212,103.299881 244.053146,104.637505 244.816696,106.543243 
	C242.437927,106.543243 240.616165,106.543243 238.725708,106.543243 
	C239.887344,100.250534 239.887344,100.250534 242.846313,101.670959 
z"/>
<path fill="#000001" opacity="1.000000" stroke="none" 
	d="
M160.578796,96.238106 
	C162.616364,96.008583 164.441986,95.457390 165.850204,95.996490 
	C167.586288,96.661125 168.974899,98.233383 170.513672,99.413406 
	C169.284317,100.814751 168.257721,103.062759 166.777649,103.417206 
	C164.606873,103.937073 161.647079,103.767258 159.942032,102.576286 
	C159.029236,101.938705 160.039352,98.548172 160.578796,96.238106 
z"/>
<path fill="#000000" opacity="1.000000" stroke="none" 
	d="
M129.726898,106.791733 
	C129.591522,104.475471 129.795135,102.251701 129.998764,100.027939 
	C130.508499,99.964073 131.018234,99.900200 131.527969,99.836334 
	C132.562485,101.841003 133.597000,103.845665 135.011993,106.587646 
	C132.863449,106.716484 131.464676,106.800354 129.726898,106.791733 
z"/>
</svg>