<?xml version="1.0" standalone="no"?>
<!DOCTYPE svg PUBLIC "-//W3C//DTD SVG 20010904//EN"
 "http://www.w3.org/TR/2001/REC-SVG-20010904/DTD/svg10.dtd">
<svg version="1.0" xmlns="http://www.w3.org/2000/svg"
 width="500.000000pt" height="247.000000pt" viewBox="0 0 500.000000 247.000000"
 preserveAspectRatio="xMidYMid meet">

<g transform="translate(0.000000,247.000000) scale(0.100000,-0.100000)"
fill="#000000" stroke="none">
<path d="M3115 2320 l-290 -138 -55 -216 c-30 -119 -57 -216 -60 -216 -3 0
-51 89 -107 197 l-101 196 -42 -84 c-104 -208 -163 -311 -170 -298 -4 8 -29
105 -56 216 l-47 202 -289 136 c-159 76 -291 135 -293 133 -5 -5 888 -1397
897 -1398 7 0 911 1401 906 1405 -2 1 -133 -60 -293 -135z"/>
<path d="M12 941 c2 -5 43 -106 93 -225 l90 -216 41 0 42 0 54 121 c30 66 59
121 64 121 5 0 32 -53 61 -118 l51 -119 43 0 43 0 93 215 c51 118 93 218 93
223 0 4 -30 7 -68 7 l-68 0 -43 -115 c-24 -64 -47 -117 -50 -120 -4 -2 -29 50
-56 116 l-49 119 -51 0 -50 0 -50 -119 c-27 -66 -53 -118 -56 -116 -3 2 -25
56 -48 120 l-43 115 -70 0 c-38 0 -68 -4 -66 -9z"/>
<path d="M912 741 c-50 -114 -94 -215 -98 -225 -5 -14 3 -16 60 -16 l67 0 20
45 20 45 98 0 99 0 19 -45 18 -45 69 0 c54 0 67 3 63 14 -3 8 -47 109 -98 225
l-93 211 -76 0 -76 0 -92 -209z m201 14 c15 -36 27 -70 27 -75 0 -6 -27 -10
-60 -10 -33 0 -60 3 -60 7 0 15 53 143 60 143 3 0 18 -29 33 -65z"/>
<path d="M1492 728 l3 -223 134 -3 c170 -3 224 10 275 69 75 88 67 240 -16
315 -56 51 -84 59 -246 62 l-152 4 2 -224z m267 117 c69 -35 82 -163 22 -217
-27 -24 -40 -28 -91 -28 l-60 0 0 130 0 130 50 0 c28 0 64 -7 79 -15z"/>
<path d="M2110 725 l0 -225 65 0 65 0 0 90 0 90 105 0 105 0 0 -90 0 -90 65 0
65 0 0 225 0 225 -65 0 -65 0 0 -80 0 -80 -105 0 -105 0 0 80 0 80 -65 0 -65
0 0 -225z"/>
<path d="M2725 913 c8 -21 50 -121 93 -223 l78 -185 43 0 43 0 55 122 c30 68
58 121 62 118 4 -2 32 -58 61 -125 l53 -120 41 0 41 0 93 218 c50 119 92 221
92 225 0 4 -30 7 -67 5 l-68 -3 -46 -119 c-53 -136 -43 -138 -109 22 l-43 103
-50 -3 -51 -3 -48 -110 c-26 -60 -49 -114 -51 -120 -3 -5 -10 4 -16 20 -6 17
-28 72 -47 123 l-36 92 -69 0 -69 0 15 -37z"/>
<path d="M3610 734 c-52 -119 -96 -220 -98 -225 -2 -5 28 -9 66 -9 l69 0 17
45 18 45 98 0 99 0 20 -45 20 -45 65 0 c36 0 66 3 66 6 0 3 -43 104 -96 225
l-97 219 -76 0 -76 0 -95 -216z m229 -51 c1 -9 -17 -13 -59 -13 -33 0 -60 2
-60 5 0 2 9 28 21 57 12 29 25 64 31 78 9 23 12 21 38 -45 16 -38 29 -76 29
-82z"/>
<path d="M4200 725 l0 -225 65 0 64 0 3 124 3 125 115 -125 114 -124 58 0 58
0 0 225 0 225 -65 0 -65 0 0 -122 -1 -123 -117 123 -117 123 -57 -1 -58 0 0
-225z"/>
<path d="M4862 728 l3 -223 68 -3 67 -3 0 226 0 225 -70 0 -70 0 2 -222z"/>
<path d="M810 149 c0 -138 1 -150 18 -147 14 3 18 16 20 71 l3 67 54 0 c42 0
55 4 55 15 0 12 -13 15 -55 15 l-55 0 0 45 0 45 55 0 c48 0 55 2 55 20 0 18
-7 20 -75 20 l-75 0 0 -151z"/>
<path d="M1153 281 c-43 -27 -63 -69 -63 -133 0 -65 15 -95 60 -126 51 -34
129 -28 171 15 59 58 59 168 0 226 -40 40 -119 49 -168 18z m141 -52 c37 -43
37 -115 0 -158 -21 -26 -33 -31 -68 -31 -64 0 -91 33 -91 110 0 77 27 110 91
110 35 0 47 -5 68 -31z"/>
<path d="M1510 200 c0 -149 29 -200 115 -200 86 0 115 51 115 200 0 91 -2 100
-19 100 -17 0 -19 -10 -23 -109 -4 -125 -17 -151 -73 -151 -57 0 -70 26 -73
151 -3 99 -5 109 -23 109 -17 0 -19 -8 -19 -100z"/>
<path d="M1900 151 c0 -144 1 -151 20 -151 18 0 20 8 22 118 l3 117 64 -118
c59 -107 67 -118 90 -115 l26 3 0 145 c0 138 -1 145 -20 145 -18 0 -20 -8 -25
-110 l-5 -110 -60 110 c-52 95 -64 110 -87 113 l-28 3 0 -150z"/>
<path d="M2290 150 l0 -153 71 6 c40 3 84 14 102 24 62 36 85 125 48 193 -26
49 -67 70 -150 77 l-71 6 0 -153z m140 95 c38 -20 50 -43 50 -99 0 -65 -30
-97 -98 -104 l-52 -5 0 112 0 111 35 0 c20 0 49 -7 65 -15z"/>
<path d="M2701 158 c-33 -79 -61 -146 -61 -150 0 -5 9 -8 19 -8 13 0 24 13 35
40 l16 40 71 0 71 0 15 -40 c11 -27 22 -40 35 -40 10 0 18 6 18 13 -1 6 -27
73 -58 147 -78 184 -80 184 -161 -2z m118 5 l21 -53 -56 0 c-54 0 -56 1 -50
24 3 13 15 46 27 73 18 41 22 45 29 28 4 -11 17 -44 29 -72z"/>
<path d="M3020 280 c0 -17 7 -20 45 -20 l45 0 0 -130 c0 -123 1 -130 20 -130
19 0 20 7 20 130 l0 130 45 0 c38 0 45 3 45 20 0 19 -7 20 -110 20 -103 0
-110 -1 -110 -20z"/>
<path d="M3370 150 c0 -143 1 -150 20 -150 19 0 20 7 20 150 0 143 -1 150 -20
150 -19 0 -20 -7 -20 -150z"/>
<path d="M3635 290 c-87 -35 -108 -182 -37 -253 59 -59 169 -45 212 26 27 43
27 131 0 174 -33 54 -113 79 -175 53z m126 -56 c20 -21 24 -36 24 -84 0 -77
-27 -110 -91 -110 -59 0 -94 41 -94 110 0 69 35 110 94 110 33 0 48 -6 67 -26z"/>
<path d="M3974 287 c-2 -7 -3 -73 -2 -147 3 -119 5 -135 21 -138 15 -3 17 7
17 112 0 64 3 116 8 116 4 0 34 -51 68 -113 51 -96 64 -112 87 -115 l27 -3 0
150 c0 144 -1 151 -20 151 -18 0 -20 -8 -22 -117 l-3 -117 -63 117 c-55 100
-68 117 -88 117 -14 0 -27 -6 -30 -13z"/>
</g>
</svg>
